<?xml version="1.0" encoding="UTF-8"?><svg id="Cyber_Space_Globe_Icons_Graphics" xmlns="http://www.w3.org/2000/svg" viewBox="0 0 612 612"><defs><style>.cls-1{fill:#1d1d1b;}</style></defs><path class="cls-1" d="M147.38,226.28c1.08,0,2.31-.35,3.48-.95,2.11-1.1,2.99-1.74,4.27-1.74,.7,0,1.54,.2,2.79,.62,.71,.25,1.1,.38,1.55,.38,.41,0,.86-.11,1.67-.35,.86-.26,2.05-1.01,3.08-1.01,.5,0,.96,.19,1.32,.7,1.09,1.6-.3,4.37-1.44,5.44-1.25,1.18-2.93,1.85-4.13,3.19-2.56,2.87-1.37,12.64,2.96,12.64,.87,0,1.89-.4,3.03-1.36,2.15-1.8,.78-4.79,1.71-7.3,.8-2.19,2.65-4.5,4.41-5.96,1.7-1.39,4.18-3.03,6.25-3.68,.86-.27,1.8-.31,2.75-.31,.37,0,.73,0,1.11,0,.83,0,1.66-.03,2.44-.22,2.38-.57,6.4-2.44,4.03-5.01-2.08-2.26-6.08-1.12-8.72-1.92-3.06-.92-4.06-3.9-6.42-5.36-.57-.36-1.25-.46-1.97-.46-1.16,0-2.43,.28-3.55,.28-.7,0-1.35-.11-1.87-.46-1.68-1.15-.96-4.48-1.79-5.95-.67-1.21-1.21-1.64-1.65-1.64-1,0-1.57,2.26-2.37,3.23-1.35,1.62-4.32,.88-5.32,2.27-1.09,1.52,.81,4.24-.7,5.95-1.34,1.51-4.5,1.57-6.28,2.57-1.82,1.01-2.6,2.24-3.79,3.71,.27,1.9,1.55,2.68,3.16,2.68Z"/><path class="cls-1" d="M180.27,237.83c-2.38,1-4,6.99-.52,6.99h.11c1.25-.05,1.84-1.12,3.12-1.35,.29-.05,.53-.08,.74-.08,1.32,0,1.29,.97,2.4,1.71,.7,.47,1.48,.92,2.34,.92,.48,0,.99-.15,1.54-.49,1.46-.94,.64-.97,1.04-2.76,.53-2.36,2.47-4.75,4.33-6.33,2.45-2.1,6.45-2.92,8.56-5.51,1.69-2.05,1.01-4.49-1.66-4.51-.03,0-.05,0-.08,0-2.11,0-3.85,.74-5.97,.74-.26,0-.52,0-.77-.04-.29-.02-.54-.03-.77-.03-2.57,0-2.38,1.44-4.06,3.64-1.57,2.07-3.42,3.01-5.95,3.62-2,.47-4.17,.87-4.4,3.5Z"/><path class="cls-1" d="M490.6,116.31h0c-49.78-50.39-115.96-78.13-186.38-78.13s-136.59,27.75-186.36,78.13c-26.46,26.78-46.59,58.25-59.65,92.56-4.67,11.62-8.53,23.65-11.5,36.02-.19-.14-.46-.13-.63,.04-.2,.19-.21,.49-.03,.7,.13,.14,.26,.27,.4,.39-4.55,19.3-6.96,39.43-6.96,60.12,0,60.73,20.76,116.62,55.58,161.03,6.98,9.18,14.58,17.97,22.81,26.29,49.78,50.39,115.97,78.14,186.36,78.14s136.59-27.75,186.38-78.14c35.86-36.31,60.45-81.73,71.09-131.27,.1-.41,.18-.82,.26-1.22,3.86-18.26,5.81-37.13,5.81-56.08,0-71.23-27.4-138.2-77.16-188.57Zm46.25,84.77c-.38,1.27-.61,2.61,.2,3.76,.59,.86,1.35,1.38,2.13,1.76,.97,2.37,1.88,4.75,2.78,7.15-.46,.95-.57,2.15,.66,3.91,.36,.51,.79,.88,1.18,1.2,0,0,0,0,.01,.01,.4,1.15,.79,2.3,1.17,3.45,0,.75,.12,1.6,.82,2.65,.03,.05,.06,.08,.1,.13,.87,2.7,1.68,5.42,2.46,8.15-.06,.07-.1,.13-.16,.21-1.91,2.55-1.33,4.7-.81,6.6,.37,1.32,.7,2.57,.27,4-.36,1.18-1.39,1.79-2.59,2.49-.96,.56-1.95,1.16-2.67,2.11-.91,1.21-.97,2.46-1.03,3.65,0,.35-.03,.71-.07,1.06-.5,4.55-2.34,5.69-6.4,8.2-.9,.55-1.87,1.41-2.9,2.32-1.87,1.66-3.99,3.55-5.69,3.55-.53,0-1.33-.16-2.21-1.5-.56-.85-.84-2.2-1.15-3.64-.57-2.65-1.2-5.65-3.89-6.72-.44-.17-.85-.26-1.25-.26-.95,0-1.61,.47-2.08,.81-.23,.17-.47,.34-.59,.35h-.09c-.81,0-1.64-.47-2.59-1.02l-.42-.24c-1.92-1.09-3.19-1.99-4.35-3.61-.19-.26-.34-.52-.49-.78-.46-.79-.98-1.7-2.34-2.06-.26-.08-.54-.11-.82-.11-1.48,0-2.95,.97-4.12,1.74-.32,.21-.61,.4-.86,.54l-.2,.12c-1.32,.77-2.19,1.27-3.03,1.27-.56,0-1.18-.22-1.99-.67-.59-.34-1.12-.75-1.69-1.19-.93-.72-1.9-1.46-3.17-1.9-2.07-.72-4.64-.87-6.91-1.01-.46-.02-.91-.05-1.34-.08l-.63-.05c-.74-.05-1.44-.11-2.13-.11-1.61,0-2.89,.3-4.15,.97-.9,.47-1.66,1.04-2.39,1.59-1.04,.79-2.03,1.54-3.34,1.88-.94,.25-1.78,.37-2.58,.48-2.23,.34-4.17,.62-5.92,3.42-.82,1.31-1.46,2.72-2.08,4.07-.4,.86-.8,1.75-1.25,2.59-2.69,5.1-5.87,5.64-10.68,6.46-1.27,.21-2.57,.43-3.99,.76-1.56,.37-3.15,.95-4.7,1.52-2.55,.94-5.19,1.92-7.73,1.92-1.36,0-2.59-.28-3.76-.85-1.72-.83-1.65-1.99-1.35-4.12,.19-1.32,.41-2.84-.24-4.19-.23-.48-.51-.9-.77-1.3-.59-.89-.94-1.47-.82-2.25,.15-.98,.51-1.08,1.59-1.36,.7-.2,1.59-.43,2.44-1.07,1.37-1.01,1.67-2.13,1.88-2.95,.24-.85,.31-1.13,1.88-1.17,1,.3,3.25,.88,5.61,.88,2.88,0,4.94-.84,6.12-2.5,.72-1.03,.99-2.14,1.23-3.13,.27-1.11,.5-2.05,1.25-2.82,.78-.77,1.6-.85,2.63-.95,.95-.09,2.02-.2,3.08-.9,1.19-.8,1.85-1.67,1.99-2.66,.24-1.56-.84-2.89-1.89-4.18-1.28-1.58-2.07-2.7-1.6-3.89,.46-1.15,1.57-1.64,3.72-1.64,.82,0,1.72,.07,2.58,.14,.85,.07,1.73,.14,2.54,.14s1.42-.07,1.96-.2c3.24-.81,4.81-3.17,6.33-5.46,1.08-1.64,2.1-3.18,3.7-4.08l.37-.21c2.24-1.26,4.19-2.35,5.83-4.79,.58-.86,1-1.7,1.42-2.51,.72-1.41,1.35-2.64,2.61-3.68,2.51-2.08,4.44-3.27,7.4-3.51l.17-.02c.59-.05,1.3-.11,2-.11,1.01,0,1.54,.13,1.8,.25,.38,.16,.69,.52,1.07,.95,.5,.55,1.05,1.18,1.9,1.51,1.22,.47,2.32,.53,3.15,.53,.37,0,.73,0,1.09-.03,.33,0,.65-.03,.97-.03,1.23,0,2.21,.2,3.3,1.19,.24,.22,.46,.42,.66,.62,.93,.88,1.75,1.65,2.87,1.65,.86,0,1.7-.45,2.7-1.47,.29-.3,.56-.58,.8-.85,.84-.93,1.32-1.41,1.88-1.41,.45,0,1.07,.28,1.87,.81l.32,.21c1.24,.85,2.05,1.4,2.99,1.4,1.15,0,1.96-.85,2.9-2.21,1.23-1.78,1.26-1.8,3.17-2.58,1.58-.64,2.22-1.09,3.46-2.17,.52-.44,.95-.91,1.37-1.36,.43-.46,.83-.9,1.3-1.29,.26-.22,.62-.39,1.02-.55,.5-.22,1.06-.46,1.55-.89,.74-.67,1.04-1.55,1.32-2.33,.19-.55,.37-1.08,.66-1.39,.28-.3,1.1-.71,1.96-.96,.58,1.28,1.16,2.55,1.72,3.84Zm-156.58-51.54c1.29,.09,1.82,.41,3.13,1.2l.48,.28c1.24,.73,2.43,1.11,3.56,1.11,.86,0,1.68-.22,2.42-.64,.83-.46,1.39-1.19,1.89-1.83,.63-.83,.96-1.2,1.44-1.2,.09,0,.2,.02,.32,.05,.15,.1,.48,.41,.69,.6,.54,.5,1.08,1.01,1.6,1.23,.95,.41,1.86,.61,2.69,.61,.61,0,1.18-.11,1.71-.33,.61-.25,1.19-.72,1.83-1.22,.49-.4,1.3-1.05,1.66-1.09,.06,.07,.23,.33,.37,1.09,.19,1.02,.02,1.65-1.4,2.12-.62,.21-.98,.26-1.31,.31-.86,.13-1.37,.29-2.55,1.32-.8,.69-1.35,1.12-1.62,1.12-.22,0-.64-.18-1.17-.41-.23-.09-.48-.2-.75-.31-.78-.32-1.41-.46-1.98-.46-1.12,0-1.79,.58-2.36,1.1-.43,.38-.87,.77-1.62,1.08-.3,.13-1.48,.37-2.32,.37-.18,0-.31,0-.38-.02-.05-.15-.09-.41-.13-.6-.11-.65-.24-1.46-.89-2.04-.78-.69-1.89-.93-2.96-1.16-.98-.21-2-.41-2.3-.94-.16-.29-.16-.74-.02-1.33Zm103.74,336.53c.41-.19,.79-.38,1.14-.57-.39,.4-.78,.81-1.18,1.21-.01-.21,0-.42,.04-.64Zm2.46-7.8c-.36-.6-.71-1.23-.91-2.02-.42-1.59,.67-2.96,1.82-4.42,1.46-1.83,3.11-3.9,.83-6.33-.82-.88-2.09-1.16-3.32-1.42-1.36-.29-2.63-.56-3.21-1.58-1.06-1.84,.94-4.21,2.23-5.46l.11-.11c1.92-1.87,3.59-3.49,3.49-6.57-.04-1.32-.45-2.28-.79-3.13-.54-1.28-.92-2.21,0-3.97l.31-.58c1.09-2.02,1.48-2.98-.58-5.06-2.1-2.11-2.02-2.34-1.3-4.51,.11-.33,.24-.69,.37-1.11,1.13-3.65-1.6-5.85-4.24-7.98-2.16-1.74-4.4-3.54-4.76-6.15-.19-1.36-.23-3.08,.15-3.65,.22-.35,.82-.66,1.41-.97,.76-.41,1.64-.87,2.1-1.58,2.49-3.78,.32-6.54-1.54-8.28-1.16-1.1-1.68-1.95-1.64-2.67,.05-.76,.73-1.56,2.29-2.68,1.09-.79,1.79-2.02,1.96-3.48,.2-1.68-.34-3.4-1.48-4.71-.59-.69-1.2-.78-1.74-.87-.33-.05-.61-.1-.9-.26-.72-.4-1.23-1.1-1.78-1.84-.41-.56-.84-1.15-1.4-1.65-2.09-1.9-4.48-1.74-7.24-1.56l-.88,.06q-2.29,.13-4.23-1.48c-1.56-1.29-1.98-1.45-4.2-1.54-1.63-.08-2.9,.15-4.12,.36-1.05,.19-2.03,.37-3.21,.35-.96,0-1.95-.21-3.01-.42-1.61-.32-3.26-.65-4.91-.29-1.98,.44-3.33,1.43-4.64,2.4-1.62,1.19-3.11,2.3-5.76,2.27-1.64-.03-2.73-1.38-3.88-2.82-.52-.64-1.06-1.3-1.66-1.85-.97-.9-1.67-1.26-2.32-1.22-.71,.03-1.18,.55-1.67,1.1-.47,.53-1,1.13-1.89,1.53-3.75,1.7-6.23-2.39-8.65-7.1-.44-.86-.81-1.59-1.16-2.15-1.58-2.54-3.88-3.43-6.1-4.29-1.57-.6-3.19-1.23-4.62-2.45-.31-.26-.62-.52-.95-.78-1.28-1.03-2.6-2.08-2.73-3.24-.06-.55,.16-1.13,.66-1.75,.33-.41,.62-.65,.9-.88,.52-.41,1-.79,1.29-1.92,.46-1.79,.05-3.83-1.08-5.33-.68-.93-1.66-1.7-2.6-2.44-1.53-1.22-2.97-2.36-3.35-4.13-.44-2.01,.79-2.78,2.36-3.75,.63-.4,1.28-.8,1.84-1.31,3.16-2.93,1.62-5.35-.18-8.16l-.11-.18c-.69-1.1-.95-1.95-.76-2.54,.26-.8,1.41-1.27,2.64-1.77,1.44-.57,3.07-1.23,3.9-2.66,1.06-1.8,.29-3.57-.48-5.27-.75-1.7-1.47-3.32-.38-4.94,.46-.68,1.4-1.1,2.3-1.5,.36-.16,.69-.31,1-.46,2.08-1.12,2.27-1.99,2.58-3.43,.11-.49,.23-1.05,.45-1.73,.9-2.83,2.89-2.55,5.41-2.2,1.72,.24,3.49,.47,5.07-.3,3.06-1.5,2.86-3.92,2.7-6.05-.1-1.22-.2-2.48,.26-3.59,.75-1.81,3.31-2.68,4.85-3.19,2.4-.82,4.16-1.72,6.39-2.99l.09-.05c1.05-.6,2.5-1.44,3.66-1,.87,.33,1.29,.86,1.73,1.42,.6,.76,1.27,1.62,3.06,1.71,2,.09,4.05-1.2,5.86-2.34,.46-.29,.89-.55,1.3-.79,.56-.32,1.22-.81,1.92-1.32,1.06-.79,2.26-1.68,3.04-1.89,1.09-.29,1.89,.22,2.83,.81,.83,.52,1.78,1.11,3.03,1.11,1.55-.03,2.65-.79,3.72-1.53,.8-.54,1.55-1.06,2.46-1.25,.91-.2,1.03-.06,1.35,.32,.23,.26,.54,.62,1.13,.92,2.12,1.07,3.91,.26,6.01-.92,1.12-.62,2.41-1.37,3.46-2.22,.84-.69,1.99-.78,2.87-.23,1.92,1.23,3.94,3.27,4.57,4.64,.45,.94,.64,2.03,.86,3.19,.23,1.22,.48,2.49,1.02,3.61,.57,1.14,1.69,1.86,2.93,1.9,1.09,.04,2.24,1.1,3.25,2.04,.56,.51,1.08,1,1.6,1.34,1.71,1.11,3.21,1.11,4.8,1.1,.78,0,1.59,0,2.46,.13,2.17,.34,3.81,1.77,5.55,3.28,.81,.71,1.65,1.43,2.53,2.03,3.19,2.14,7.23,2.85,9.36,3.08,3.18,.35,5.57-.9,8.1-2.23,.39-.2,.77-.41,1.18-.61,.62-.31,1.19-.65,1.76-.98,2.17-1.29,3.74-2.22,5.68-.69,.4,.32,.73,.63,1.05,.93,1.11,1.05,2.15,2.03,4.49,1.49,.74-.18,1.41-.68,2.04-1.18,.64-.49,1.26-.97,1.86-1,1.94-.09,3.8,3.16,5.01,5.31,.32,.55,.6,1.05,.84,1.43,1.03,1.62,1.89,3.36,2.72,5.04,.82,1.67,1.67,3.4,2.7,5.02,.64,1.01,1.26,1.79,1.96,2.52-.85,11.92-2.49,23.74-4.93,35.29l-.03,.14c-.05,.27-.1,.53-.19,.9-9.95,46.33-32.49,88.86-65.29,123.3,.16-.41,.28-.88,.33-1.45,.15-1.63-.46-2.68-1.03-3.69Zm62.72-199.15c-.36-.19-.73-.39-1.09-.55,.36,.17,.73,.36,1.09,.55,.54,.27,1.08,.56,1.63,.77-.55-.21-1.1-.49-1.63-.77Zm.61,7.02c-.09,0-.2,0-.33,0h0c.13,0,.24,0,.33,0Zm-4.5-7.8c.33-.17,.66-.25,1.02-.25,.23,0,.46,.03,.69,.09-.24-.06-.47-.09-.69-.09-.36,0-.69,.08-1.02,.25Zm-101.39-84.53c-.09-.93-.21-2.08,.12-2.44,.16-.18,.56-.22,.85-.22,.25,0,.55,.02,.87,.08,1.29,.21,1.68,1.01,2.3,2.53,.29,.69,.61,1.48,1.11,2.19,1.27,1.8,3.07,2.36,4.81,2.9,.28,.1,.58,.19,.86,.29,0,.15-.02,.31-.03,.46-.05,.76-.1,1.55,.06,2.27,.34,1.63,1.13,2.12,1.71,2.49,.25,.17,.44,.28,.59,.49,1,1.42,1.06,2.71,.21,4.29-.88,1.61-2.15,2.04-3.92,2.63-.58,.2-1.17,.4-1.8,.65-.53,.22-1,.5-1.47,.78-.77,.46-1.46,.87-2.21,.9,0-.81-.1-1.56-.19-2.24-.2-1.62-.36-2.9,.52-4.48,1.08-1.96,1.8-3.44,1.15-4.63-.59-1.08-1.96-1.38-4.3-1.58h-.13c-1.38-.12-2.74-.3-2.98-1.14-.15-.5-.04-.63,.52-1.15,.38-.34,.83-.76,1.11-1.4,.49-1.11,.36-2.41,.23-3.67Zm74.57-27.34c-.56,.48-1.06,1.02-1.37,1.73-.24,.56-.33,1.14-.41,1.63-.13,.85-.23,1.52-.97,2.04-.33,.24-.99,.28-1.63,.32-.73,.05-1.49,.1-2,.44-.91,.6-1.45,1.36-1.58,2.26-.26,1.74,1.04,3.55,2.19,4.94,.88,1.06,1.27,1.84,1.13,2.32-.18,.62-1.35,1.04-2.71,1.51-.36,.12-.72,.25-1.1,.39-.19,.07-.32,.25-.33,.44-.03,.79,.03,1.54,.09,2.27,.18,2.36,.28,3.65-2.47,3.93l-.62,.06c-1.42,.13-2.28,.21-3.74,.92-.28,.14-.38,.4-.45,.59-.07,.21-.11,.28-.23,.33-.29,.11-.9,.04-1.35,0-.03,0-.06,0-.08,0,0-.71,.1-1.5,.2-2.33,.21-1.78,.43-3.63-.15-4.96-.02-.04-2.16-4.68-4.03-4.82-.24-.02-.65,.03-1.01,.44-1.17,.08-1.86,.99-2.47,1.8-.5,.66-.96,1.27-1.62,1.46-1.56,.43-2.16-.45-3.01-1.95-.41-.71-.83-1.45-1.45-1.96-.49-.4-.94-.56-1.31-.68-.51-.19-.81-.29-1.11-.96-.14-.31-.1-.72-.05-1.16,.05-.57,.11-1.21-.21-1.82-.31-.58-.89-1.09-1.52-1.62-1.37-1.16-2.23-2.03-1.78-3.43,.85-2.67,4.57-2.1,8.17-1.57,2.87,.43,5.34,.81,6.58-.36,1.67-1.57,1.39-3.09,1.12-4.57-.07-.43-.16-.89-.19-1.34l-.04-.47q-.1-1.1,1.58-1.51c.52-.13,1.13-.17,1.78-.21,.84-.05,1.71-.1,2.43-.38,1.86-.69,2.19-2.23,2.49-3.59,.24-1.1,.47-2.13,1.4-2.82,.39-.29,.86-.42,1.36-.58,.36-.12,.75-.24,1.15-.43,3.25,4.47,6.34,9.03,9.29,13.68ZM304.22,47.63c34.26,0,67.48,6.83,98.16,19.83-.53,1-1.24,2-1.9,2.93-.72,1-1.41,1.95-1.84,2.85-.95,1.97-2.76,2.67-4.67,3.42-1.92,.74-3.91,1.52-4.85,3.66-.21,.48-.3,.97-.38,1.43-.08,.44-.15,.87-.33,1.25-.14,.32-.34,.49-.58,.69-.4,.36-.89,.8-.81,1.9,.12,1.61,1.42,2.21,2.56,2.74,.82,.38,1.6,.74,1.9,1.42,.55,1.22-.02,3.25-.86,4.11-.55,.56-.96,.89-1.29,1.16-.82,.65-1.22,1.02-1.82,2.76-.82,2.41-1.47,3.44-4.12,3.16-1.56-.17-1.94-.65-2.48-1.31-.39-.48-.83-1.04-1.72-1.55-2.57-1.51-3.68-.35-4.65,.69-.48,.51-.97,1.04-1.68,1.35-.92,.4-1.38,.04-2.18-.69-.64-.59-1.44-1.3-2.74-1.31-1.52,.03-1.83,.8-2.09,1.48-.14,.35-.28,.7-.6,1.06-.65,.71-1.61,.75-2.62,.79-1.1,.05-2.23,.1-2.86,1.12-.7,1.16-.54,2.05-.28,2.61,.6,1.27,2.21,1.95,3.41,2.12,.51,.08,.9,.12,1.24,.16,1.09,.11,1.35,.14,2.55,1.21,.36,.32,.55,.6,.72,.86,.52,.79,.95,1.13,2.61,.81,.72-.14,1.3-.42,1.81-.68,.83-.42,1.49-.74,2.64-.45,1.68,.41,3.16,2.15,3.31,3.88,.07,.84-.17,1.99-1.66,2.63-1.04,.44-2.57,.34-4.06,.23-2.88-.21-6.14-.43-6.87,3.27-.17,.83,.2,3.99,1.01,4.71,.72,.65,1.81,.5,2.85,.37,1.14-.15,1.91-.21,2.22,.29,.15,.22,.17,.49,.06,.82-.37,1.19-2.22,2.67-3.09,3.01-1.39,.57-3.83,.56-5.44,0-.67-.24-1.3-.5-1.87-.74-1.62-.68-2.9-1.21-4.08-.72-.87,.38-1.57,1.29-2.17,2.89-1.16,3.05-2.98,3.06-6.26,3.07h-.54c-.26,0-.54,0-.82,0-1.48-.03-3.31-.06-4.62,.85-.85,.59-1.12,1.48-1.36,2.27-.19,.64-.36,1.2-.78,1.52-.24,.18-.93,.11-1.44,.05-.41-.04-.79-.08-1.1-.04-1.65,.25-1.89,.43-2.66,1.19-.17,.17-.38,.37-.64,.61-.42,.38-.75,.81-1.07,1.22-.61,.78-1.13,1.45-2.04,1.68-1.1,.29-2.19,.17-3.35,.05-1.74-.2-3.53-.39-5.41,.82-.9,.58-1.23,1.24-1.54,1.88-.16,.3-.3,.59-.51,.88s-.28,.6-.33,.89c-.05,.25-.1,.46-.23,.66-.04,0-.09-.02-.14-.03-.34-.07-.76-.17-1.08,.1-1.62,1.32-1.84,2.97-2.04,4.57-.07,.59-.15,1.21-.3,1.8-1.01-.15-1.75,0-2.25,.48-.97,.9-.72,2.64-.48,4.33,.15,1.02,.3,2.07,.12,2.7-1.43,4.95-4.94,4.07-9.43,2.95-3.91-.97-5.41-3.26-7.47-6.42-.34-.51-.68-1.05-1.05-1.6-1.01-1.48-2.2-2.28-3.46-3.13-.62-.41-1.26-.84-1.89-1.36-1.03-.87-1.79-1.84-2.58-2.87-.57-.72-1.14-1.47-1.82-2.17-.34-.35-.75-.62-1.16-.89-.91-.59-1.46-1.02-1.43-1.74,.03-.77,.49-.99,1.36-1.33,.73-.29,1.65-.64,2.04-1.67,.72-1.88-.77-2.98-1.88-3.78-.65-.48-1.27-.94-1.34-1.39-.03-.22,.06-.47,.28-.76,.12-.16,.26-.18,.59-.2,.29-.01,.65-.04,.94-.3,.66-.6,1.02-1,1.2-1.26,.16-.11,.3-.22,.44-.32,.53-.4,.9-.68,1.8-.86,.48-.1,1.01-.19,1.58-.28,2.78-.44,6.24-1.01,7.58-3.58,.37-.69,.42-1.3,.17-1.81-.51-1.01-2.05-1.27-3.56-1.54-.76-.13-1.48-.26-1.98-.45-2.08-.83-2.72-2.19-3.45-3.76-.6-1.27-1.21-2.6-2.65-3.66-.45-.34-.85-.6-1.21-.83-1.43-.93-1.69-1.1-.78-2.95l.25-.52c1.08-2.19,2.01-4.08-.66-6.3-.47-.38-.87-.64-1.21-.85-.73-.46-1.1-.7-1.38-1.77-.14-.56-.12-1.1-.09-1.66,.05-.95,.11-2.02-.76-3.07-.54-.64-1.39-.99-2.22-1.31-.82-.33-1.61-.63-1.93-1.18-.37-.59-.27-1.84-.19-2.83,.03-.42,.06-.81,.06-1.13,0-4.09-.68-5.04-4.61-6.35-2.79-.92-4.56-1.75-6.53-3.67-.75-.73-1.47-1.48-2.17-2.22-3.45-3.63-6.72-7.05-12.38-7.07h-.3c-1.22-.01-2.27-.01-3.52,.5-.45,.19-.85,.53-1.28,.91-.62,.54-1.27,1.1-2.01,1.12-1.01,.02-1.84-.35-2.38-1.08-.58-.78-.78-1.92-.58-3.01,1.65,.61,4.58,1.07,5.71-.72,.49-.77,.28-2.33-.02-4.14-.06-.36-.11-.66-.13-.86-.17-1.71-.77-5.75-2.75-6.36-.88-.28-1.83,.17-2.82,1.32-.31,.36-.24,.82-.18,1.22,.05,.29,.08,.52,.02,.64-.47,.08-2.18,.07-2.45,.01-.27-.12-.6-.57-.9-1.01-.64-.89-1.51-2.09-2.87-1.53-.66,.28-.96,1.07-1.26,1.82-.24,.62-.48,1.26-.86,1.51-.76,.49-1.48,.32-2.39,.1-.36-.09-.72-.18-1.11-.23-.05-1.03-.06-1.93,.5-2.75,.29-.4,.93-.66,1.56-.91,.62-.25,1.21-.47,1.59-.9,.31-.35,.52-.79,.66-1.28,22.83-6.7,46.73-10.19,71.16-10.19Zm-69.47,88.23c.03,.18,.08,.44,.07,.52-.05,.21-.24,.48-.43,.75-.27,.39-.58,.82-.68,1.35-.37,1.83,.31,3.55,2.04,5.27,.68,.68,1.38,1.12,1.93,1.47,1.01,.62,1.47,.92,1.53,2.12,.08,1.45-.23,1.82-1,2.14-.16,.07-.37,.1-.62,.1-.33,0-.69-.05-1.08-.11-.43-.06-.87-.13-1.33-.13-.9,0-1.61,.27-2.17,.79-.56,.52-.72,1.2-.87,1.75-.07,.3-.17,.66-.29,.74-.37,.25-.74,.37-1.14,.37-1.85,0-3.96-2.49-5.23-3.98-.21-.25-.4-.47-.58-.67-2.08-2.36-3.35-5.09-4.7-7.98-.17-.37-.35-.74-.53-1.12-1.23-2.62-2.56-3.37-5.1-4.35-.33-.13-.65-.23-.96-.33-1.38-.45-1.49-.55-1.39-1.38,.04-.37,.23-.55,.66-.94,.34-.3,.75-.66,1.04-1.21,.62-1.15,.58-2.32,.54-3.35-.02-.59-.04-1.15,.04-1.69,.18-1.18,.28-1.22,.62-1.35,.4-.15,.98-.39,1.68-1.07l.08-.09c.82-.82,1.54-1.53,1.07-3.46-.4-1.67-1.76-2.87-3.07-4.04-.96-.86-1.89-1.68-2.35-2.61-1.27-2.5-.5-4.64,2.5-6.95,1.01-.77,1.91-1.16,2.68-1.16,1.16,0,2.29,.9,3.65,2.93,.29,.42,.54,.83,.77,1.21,1.34,2.12,2.3,3.67,5.92,3.95,.18,.02,.36,.02,.55,.02,1.01,0,2.17-.18,3.4-.38,1.29-.2,2.62-.41,3.81-.41,2.54,0,3.56,.92,3.64,3.3,.04,1.12-.55,1.64-1.59,2.47-1,.79-2.26,1.79-2.39,3.72-.1,1.43,.45,3.64,1.66,4.92,.27,.3,.57,.52,.88,.69-.42,.81-.52,1.25-.24,1.74,.32,.56,.92,.58,1.18,.58,.16,0,.28,0,.4,.06,.57,.23,.88,.3,1.09,.36,.03,0,.06,0,.07,0,.04,.02,.13,.1,.39,.36,.29,.29,.52,.66,.75,1.06,.54,.89,1.26,2.11,3.03,2.11,.27,0,.56-.03,.86-.09,1.05-.2,1.86-1.15,2.7-2.13,.67-.78,1.5-1.75,2.07-1.75,.37,0,.78,.46,1,.74,.58,.72,.44,1.23,.26,1.6-.86,1.77-4.81,3.32-6.74,3.32h-.2c-.67-.06-1.83-.75-2.84-1.36-1.46-.88-2.98-1.8-4.39-1.8-.77,0-1.85,.29-2.56,1.62-.3,.57-.19,1.21-.11,1.72Zm-48.34-58.73s.26,.41-.16,1.74c-.7,2.26-3.13,4.41-5.27,6.3-.7,.63-1.37,1.22-1.95,1.8-3.14,3.1-3.67,6.22-1.59,9.3,.4,.58,1.14,1.24,1.99,2.02,1.66,1.48,4.17,3.73,3.28,5.01-.19,.27-.56,.72-.88,.72-1.05,0-2.63-2.87-3.39-4.25-.68-1.23-1.03-1.85-1.45-2.16-.7-.52-1.5-.78-2.37-.78-1.17,0-2.3,.46-3.4,.92-1.02,.42-2.08,.85-3.06,.85-.69,0-1.3-.21-1.9-.66,.04-.25,.17-.44,.4-.76,.25-.36,.56-.8,.73-1.43,.35-1.26-.06-2.21-.36-2.91-.13-.3-.24-.56-.27-.79-.22-1.39,0-1.68,.02-1.69,0,0,.07-.07,.45-.07,.27,0,.61,.04,.96,.08,.43,.04,.92,.1,1.42,.1,.86,0,1.59-.16,2.21-.48,1.53-.8,1.44-1.84,1.37-2.53-.03-.34-.06-.62,.05-.99,.35-1.12,1.57-1.87,2.75-2.59l.11-.08c1.24-.75,2.12-1.75,2.98-2.72,.13-.14,.25-.28,.38-.42,2.18-1.25,4.37-2.45,6.58-3.62,.18,.02,.32,.05,.37,.11Zm10.93,461.27c.2-.51,.4-.99,.6-1.45,.92-2.04,1.72-3.81,.13-6.71-.42-.75-1.03-1.47-1.69-2.23-1.24-1.42-2.51-2.88-2.28-4.54,.1-.71,.3-.86,.66-1.15,.32-.24,.7-.53,1.05-1.19,.84-1.56,.26-2.61-.31-3.62-.2-.35-.41-.71-.56-1.12-.68-1.81-.13-2.21,.95-3.02,.64-.47,1.44-1.07,2.05-2.08,1.31-2.12,.77-4.09,.25-5.99-.09-.3-.17-.6-.25-.91-.33-1.31-.48-2.05,.11-3.13,.27-.5,.57-.88,.85-1.24,.54-.66,1.08-1.35,1.27-2.65,.17-1.21,.04-2.59-.1-3.93-.17-1.74-.35-3.55,.16-4.89,.45-1.2,1.76-2.05,3.04-2.89,.69-.45,1.34-.89,1.87-1.37,1.86-1.7,1.85-2.91,1.84-4.92v-1.13q0-1.67,1.39-2.71c.4-.31,.86-.53,1.37-.78,1.07-.51,2.28-1.11,2.67-2.5,.05-.16,0-.34-.11-.46-1.36-1.51-3.09-2.11-4.59-2.5-.28-.07-.6-.09-.93-.12-.49-.03-1.1-.07-1.27-.3-.39-.51-.51-.96-.39-1.35,.37-1.15,2.69-1.92,3.94-2.33,.39-.13,.7-.24,.9-.33,.19-.08,.3-.26,.3-.45,0-.41,.02-.8,.03-1.2,.06-1.44,.12-2.92-.64-4.27-.48-.83-1.36-1.4-2.13-1.92-.52-.34-1-.65-1.18-.93-.91-1.46,.05-2.82,1.07-4.25,.42-.58,.81-1.14,1.07-1.7,1.3-2.88,.92-6.87-1.95-8.55-.8-.46-1.67-.6-2.49-.73-.51-.08-.98-.16-1.43-.31-1.57-.5-3-1.51-4.38-2.5-.4-.28-.78-.55-1.18-.82-.53-.36-1.22-.79-2.01-1.28-3.82-2.37-10.2-6.34-9.82-9.44,.13-1.1,.85-1.35,2.01-1.67,1.25-.35,2.96-.81,2.44-3.5-.42-2.13-2.54-3.44-4.59-4.7-1.11-.68-2.16-1.32-2.84-2.03l-.18-.19c-.8-.85-1.64-1.72-1.96-2.69-.5-1.43-.31-1.67,.34-2.45,.14-.17,.3-.37,.47-.59,.2-.27,.37-.39,.55-.51,.3-.22,.64-.47,.94-1.25,.99-2.57-1.15-4.56-1.86-5.22-.44-.4-1-.75-1.54-1.08-1.21-.73-2.25-1.36-2.21-2.66,0-.12-.03-.23-.11-.33-1.21-1.49-1.7-4.06-1.1-5.85,.35-1.06,1.02-1.73,1.99-1.98,.55-.15,1.2-.18,1.89-.22,1.63-.08,3.48-.17,4.47-1.88,.64-1.09,.44-2.3,.26-3.37-.11-.6-.2-1.18-.15-1.68,.17-1.57,.97-2.74,1.82-3.97,1.17-1.71,2.39-3.48,1.93-6.36-.13-.85-.36-1.57-.58-2.27-.34-1.06-.64-2.04-.59-3.35,.02-.53,.16-1.13,.3-1.75,.3-1.32,.62-2.7-.04-3.88-1.03-1.88-4.38-3.05-6.32-3.26-2.24-.24-2.97-.82-4.41-2-.32-.26-.67-.54-1.09-.86-1.39-1.07-2.47-1.06-3.51-1.06-.74,0-1.51,.02-2.47-.37-1.69-.66-2.81-2.89-3.7-4.69-.24-.49-.47-.95-.69-1.35-.18-.33-.37-.68-.57-1.07-.81-1.56-1.75-3.33-2.96-4.37-.92-.8-1.82-1.21-2.59-1.58-1.02-.47-1.9-.88-2.71-2.03-.25-.37-.48-.73-.7-1.11-.39-.64-.79-1.31-1.33-1.92-.88-1.01-1.09-1.17-1.72-1.25-.24-.03-.56-.08-1.18-.32-1.07-.4-2.04-1.37-3-2.3-1.55-1.53-3.15-3.12-5.41-2.64-.99,.21-1.78,.83-2.46,1.37-1.2,.95-1.81,1.43-2.98,0-.19-.24-.3-.59-.41-.97-.18-.61-.38-1.3-1.07-1.72-.73-.43-1.67-.29-2.56-.15-.66,.11-1.34,.22-1.78,.05-1-.39-1.72-1.37-2.47-2.42-.75-1.05-1.54-2.14-2.7-2.71-1.26-.62-2.73-.57-4.15-.53-2.05,.07-3.84,.13-4.87-1.65,.2-2.72-2.37-3.91-4.63-4.98-1.2-.56-2.33-1.09-3.01-1.78-.43-.43-.81-1.04-1.18-1.62-.57-.88-1.15-1.79-1.96-2.31-.66-.42-1.47-.58-2.25-.73-1.12-.22-2.17-.41-2.67-1.35-.82-1.53-.07-2.12,1.35-3.04,.85-.54,1.74-1.12,1.89-2.06,.11-.64-.13-1.33-.73-2.11-.59-.75-1.37-1.21-2.12-1.65-.89-.52-1.74-1.02-2.27-1.97-.39-.69-.58-1.28-.75-1.86-.37-1.16-.68-2.15-2.41-3.18-.64-.38-1.32-.62-1.97-.87-.92-.35-1.81-.67-2.55-1.33-.94-.82-1.35-1.69-1.83-2.7-.25-.51-.5-1.05-.84-1.61-.73-1.22-1.7-1.77-2.72-2.34-.6-.34-1.21-.68-1.85-1.2-.78-.64-1.36-1.54-1.91-2.42-.49-.77-.99-1.56-1.65-2.2-2.32-2.26-4.46-1.32-6.19-.56-1.05,.45-1.96,.86-2.76,.55-.65-.26-1.25-1.01-1.82-2.28-1.07-2.45-1.47-2.73-3.76-4.01-2.2-1.25-3.72-2.47-4.28-3.45-.72-1.26-.38-2.23,.07-3.46,.2-.52,.4-1.07,.52-1.68,.61-2.93-1.12-3.55-2.64-4.08-.86-.31-1.75-.62-2.39-1.33-.59-.65-.59-.95-.58-1.55,0-.32,.02-.72-.07-1.23-.22-1.38-.6-2.35-1.35-3.2,10.13-48.03,33.68-92.15,68.8-127.69,.16-.16,.33-.32,.49-.49,2.04-.06,3.25-.8,4.74-1.7,.46-.29,.95-.59,1.52-.9,2.08-1.13,3.91-.83,5.68-.53,2.3,.38,4.68,.76,7.12-2.17,.38-.45,.71-.9,1.03-1.32,1.21-1.61,2.08-2.77,4.24-3.13,2.81-.47,3.69,1.01,5.04,3.25l.28,.47c3.46,5.7,10.67,5.76,15.69,2.91l.27-.15c1.37-.78,2.78-1.58,4.34-1.42,1,.11,1.48,.46,2.07,.92,.42,.31,.88,.65,1.58,.97,1.87,.84,3.82,.42,5.7,0,.85-.19,1.66-.37,2.45-.43,.12,1.49-.46,1.97-2.01,2.88-.54,.31-1.13,.59-1.72,.86-.42,.2-.83,.39-1.23,.59-.7,.38-1.22,.76-1.77,1.17-.36,.27-.72,.54-1.17,.83-1.05,.68-2.37,.55-3.76,.41-1.73-.17-3.69-.36-5.14,1.22-.58,.62-.87,1.28-1.13,1.87-.43,.96-.73,1.64-2.05,2.01-.68,.19-1.36,.16-2.06,.12-.98-.05-1.99-.1-3.09,.44-1.48,.73-2.67,2.15-3.46,4.12-.19,.46-.31,.99-.42,1.5-.19,.82-.39,1.68-.84,2.24-.47,.58-1.13,.98-1.84,1.38-.87,.51-1.77,1.05-2.43,2-.24,.34-.3,.67-.35,.94-.06,.29-.09,.47-.3,.67-.38,.36-1.01,.5-1.68,.65-.72,.16-1.48,.33-2.01,.8-1.3,1.14-1.08,2.35-.88,3.43,.12,.67,.24,1.31,0,1.95-.31,.85-.99,1.29-1.71,1.76-1.06,.69-2.26,1.46-2.04,3.55,.13,1.27,.86,2.42,1.58,3.54,.72,1.13,1.42,2.2,1.48,3.35,.05,1.01-.25,2.06-.57,3.18-.3,1.04-.62,2.11-.63,3.19-.09,5.01,3.14,5.79,6.25,6.55,1.01,.24,2.05,.49,3.01,.89,1.49,.63,2.07,1.7,2.75,2.95,.4,.72,.8,1.46,1.41,2.19,1.73,2.06,3.84,2.23,5.84,2.24,2.94,0,3.75,.33,5.82,2.32,1.17,1.14,1.94,2.09,2.41,3.02,.23,.45,.36,.94,.51,1.44,.26,.95,.53,1.92,1.45,2.72,.58,.5,1.3,.68,1.99,.86,.59,.15,1.14,.29,1.52,.61,.42,.36,.64,.95,.89,1.59,.24,.6,.48,1.22,.91,1.75,1.43,1.71,3.96,3.2,6.39,2.71,1.4-.3,1.79-1.03,2.12-1.67,.19-.37,.37-.7,.72-1.01,.9-.76,2.08-.78,3.34-.79,.28,0,.56,0,.83,0,2.98-.12,4.4-1.72,4.34-4.89-.02-.83-.51-1.72-1.02-2.67-.58-1.05-1.17-2.13-.86-2.78,.41-.83,1.05-.89,2.07-.91,1.23-.03,2.92-.07,2.87-3.15-.02-1.13-.29-1.86-.5-2.4-.32-.85-.41-1.11,.88-2.25,.31-.27,.5-.29,.71-.31,.58-.05,.95-.26,1.24-1.22,.67-2.2-1.15-3.27-2.36-3.98-.17-.1-.33-.19-.47-.29-2.17-1.36-2.7-2.18-1.83-4.64,.18-.5,.42-.96,.67-1.44,.36-.7,.73-1.42,.91-2.27,.39-1.79-.13-2.51-.72-3.35-.3-.41-.6-.84-.86-1.49-.34-.82-.31-1.54,.09-2.03,.48-.59,1.48-.81,2.66-.6,.67,.12,1.27,.52,1.89,.95,.78,.54,1.68,1.16,2.85,1.2,.91,.04,1.69-.17,2.44-.36,1.09-.29,2.12-.55,3.48-.05,2.38,.87,3.37,2.89,4.43,5.04,.83,1.7,1.7,3.45,3.29,4.64,1.18,.89,2.42,1.37,3.62,1.85,1.94,.77,3.62,1.43,4.73,3.59,.15,.29,.28,.54,.41,.8,1.24,2.49,1.94,3.57,5.65,2.92,2-.34,2.3-.65,2.79-2,.13-.34,.28-.76,.54-1.29,.62-1.32,1.35-2.67,2.87-3.32,.9-.39,1.64-.45,1.98-.19,.36,.28,.3,.96,.24,1.33-.17,.95-.81,1.29-1.56,1.68-.58,.31-1.17,.62-1.5,1.23-.47,.86-.58,1.59-.34,2.23,.42,1.11,1.71,1.59,2.96,2.05,.7,.27,1.37,.51,1.75,.83,.61,.5,1.05,1.33,1.53,2.2,.43,.79,.86,1.6,1.46,2.23,.85,.91,1.76,1.41,2.63,1.9,.68,.39,1.33,.75,1.97,1.3,.67,.58,1.4,1.95,2.11,3.27,1.21,2.26,2.46,4.6,4.16,4.72,1.03,.07,1.27,.53,1.66,1.31,.21,.41,.44,.87,.81,1.3,.12,.14,.17,.28,.23,.44,.11,.31,.25,.68,.71,1.04,.33,.25,.87,.33,1.44,.41,.25,.03,.49,.07,.64,.11,1.17,.37,1.96,.87,2.06,1.32,.07,.37-.32,.78-.65,1.07-.44,.38-1.01,.4-1.68,.42-.92,.03-2.07,.08-2.83,1.3-1.89,3.09,1.18,5.04,3.42,6.47,1.13,.72,2.2,1.39,2.55,2.05,.53,.98,.66,1.7,.41,2.03-.68,.86-3.95,.03-5.52-.37-.56-.15-1.01-.26-1.3-.31-.23-.04-.47,.1-.55,.33-.22,.63-.5,1.02-.79,1.13-.5,.18-1.28-.29-2.03-.73-.26-.15-.53-.31-.78-.44-.63-.33-1.48-.51-2.37-.71-1.45-.32-3.11-.67-3.58-1.69-.26-.53-.33-.94-.23-1.21,.15-.39,.72-.61,1.33-.86,.56-.23,1.12-.45,1.57-.86,.87-.81,1.28-1.87,1.1-2.89-.18-1.08-.95-1.98-2.13-2.49-2.24-.98-2.99,.12-3.64,1.09-.3,.45-.62,.92-1.09,1.24-.81,.54-1.87,.47-2.98,.4-1.31-.09-2.66-.18-3.76,.74-.96,.8-1.38,1.63-1.72,2.29-.5,1-.82,1.65-2.7,1.91-1.24,.16-2.44-.1-3.6-.35-1.09-.24-2.22-.48-3.34-.36-.19,.03-.36,.16-.42,.34-1.23,3.72,2.22,6.41,4.99,8.57,.68,.54,1.34,1.05,1.85,1.52,2.44,2.26,3.54,3.75,3.7,6.68-.93-.14-1.64-.86-2.43-1.68-1.18-1.22-2.52-2.6-4.9-1.93-2.73,.77-3.66,3.28-4.18,5.37-.7,2.9-1.33,4.07-3.92,5.66-3.28,2.03-4.15,3.04-5.44,6.37-1.78,4.59-4.4,4.46-7.72,4.29-2.07-.11-4.41-.23-6.73,.92-1.06,.53-1.8,1.45-2.5,2.34-.55,.68-1.05,1.33-1.7,1.79-.88,.63-1.91,.95-2.91,1.26-1.79,.55-3.63,1.13-4.38,3.51-.52,1.65-.36,3.42-.19,5.14,.25,2.65,.49,5.16-1.77,7.02-.2,.17-.41,.35-.62,.52-.75,.65-1.61,1.38-2.57,1.92-.3,.17-.56,.31-.78,.42-.97,.52-1.55,.83-2.51,1.86-.33,.36-.68,.71-1.05,1.07-.84,.83-1.72,1.69-2.29,2.65-.41,.68-.55,1.45-.67,2.2-.14,.76-.27,1.48-.66,1.94-.42,.46-.76,.67-1.12,.69-.61,0-1.27-.82-1.91-1.61-.94-1.15-2-2.44-3.54-2.21-1.07,.16-1.72,.99-2.28,1.72-.38,.48-.73,.95-1.19,1.21-1.38,.76-3.11,.38-4.18-.19-.88-.46-1.67-1-2.42-1.5-2.04-1.38-3.98-2.7-7.32-2.16-1.53,.25-2.52,1.46-3.38,2.54-1.27,1.57-2.19,2.72-4.36,1.5-.39-.21-.71-.59-1.07-1-.78-.92-1.87-2.16-3.84-.83-.71,.48-1.03,1.2-1.33,1.88-.35,.79-.64,1.47-1.53,1.78-.97,.35-1.64,.24-2.27,.13-.96-.17-1.95-.34-3.42,1.17-.23,.25-.46,.51-.66,.79-.79,.97-1.34,1.56-2.47,1.33-.43-.09-.97-.52-1.51-.95-.86-.69-1.77-1.4-2.73-1.19-.61,.15-1.09,.64-1.48,1.52-.32,.69-.03,1.43,.18,1.98,.07,.18,.17,.44,.17,.51-.16,.72-.36,.82-.8,1.04-.39,.19-.86,.41-1.37,1.05-.58,.72-.8,1.3-.71,1.83,.12,.66,.68,1.02,1.24,1.36,.52,.33,1.04,.65,1.25,1.22,.36,.99-.24,1.62-1.25,2.57-.99,.93-2.21,2.07-1.79,3.9,.04,.18,.17,.32,.35,.37,1.33,.39,2.89,1.22,3.17,2.09,.35,1.08-.23,1.65-1.19,2.51-.39,.35-.79,.7-1.1,1.12-.82,1.1-1.13,1.92-1.01,2.65,.16,.95,1.01,1.6,2.11,2.36,.32,.23,.57,.38,.75,.48q.52,.33,.89,1.18c.14,.31,.16,.67,.19,1.07,.04,.61,.09,1.31,.61,2.01,1.02,1.39,2.38,1.59,3.68,1.78,.83,.12,1.61,.24,2.33,.64,.23,.13,.55,.5,.86,.87,.68,.79,1.53,1.78,2.66,1.86,1.37,.11,2.24-.77,2.96-1.47,.93-.91,1.42-1.32,2.44-.71,.19,.12,.33,.45,.49,.82,.24,.58,.54,1.31,1.29,1.69,1.27,.64,2.21,.24,3.13-.17,.52-.22,1.05-.61,1.62-1.04,1.69-1.23,2.88-1.97,3.99-.75,.76,.83,.21,3.89-.33,5.62-.08,.26,.06,.53,.32,.61q1.7,.59,1.53,1.57c-.05,.3-.11,.64-.16,1.06-.25,2.12-.36,3.08,1.8,4.74,.87,.67,1.88,1.02,2.86,1.35,.91,.32,1.78,.61,2.45,1.15,.79,.62,1.32,1.58,1.89,2.58,.45,.81,.9,1.64,1.53,2.32,.73,.8,1.56,1.3,2.35,1.79,.61,.38,1.18,.73,1.69,1.2,.47,.43,.83,1.12,1.22,1.83,.51,.94,1.03,1.91,1.88,2.5,.67,.47,1.42,.52,2.14,.57,.63,.04,1.24,.08,1.77,.4,.1,.07,.16,.37,.21,.58,.06,.33,.13,.65,.38,.87,.84,.76,1.91,1.34,2.85,1.75-.15,.17-.27,.35-.39,.52-.13,.19-.26,.38-.42,.56-.1,.11-.14,.26-.12,.41,.02,.14,.11,.27,.23,.35,2.82,1.71,4.02,.2,4.89-.92,.64-.8,1-1.21,1.67-1.04,.31,.09,1.05,.97,1.45,1.44,.35,.41,.62,.75,.85,.93l.13,.1c.52,.41,1.11,.89,1.76,1.27,.64,.38,1.33,.65,1.99,.65,1.61,0,2.37-.98,3.06-1.85,.38-.48,.73-.94,1.2-1.19,.95-.48,1.58-.24,2.45,.1,.35,.14,.7,.29,1.12,.39,1.46,.36,2.73,.07,3.95-.21,1.11-.26,2.16-.49,3.31-.23,.69,.15,1.25,.5,1.86,.88,.7,.45,1.44,.91,2.4,1.02,1.73,.19,2.75-.51,3.74-1.2,.42-.3,.85-.59,1.35-.83,2.38-1.14,2.98-.44,3.96,.7,.6,.69,1.28,1.49,2.46,1.98,1.89,.76,3.55,0,5.16-.74,1.57-.71,3.05-1.39,4.71-.72,.54,.22,.87,.43,1.21,.64,.56,.34,1.07,.67,2.21,.81,.41,.06,.83,.02,1.24-.02,.49-.05,.94-.1,1.31,.02,.59,.2,1.08,.61,1.61,1.06s1.06,.9,1.74,1.18c.2,2.61,2.08,3.73,3.91,4.83,1.28,.77,2.5,1.5,3.2,2.73,.57,.98,1.44,1.41,2.21,1.8,.7,.35,1.36,.68,1.8,1.38,.34,.56,.49,1.12,.64,1.7,.26,.97,.54,1.99,1.74,2.9,.69,.53,1.43,.9,2.13,1.25,1,.5,1.94,.98,2.77,1.9l.43,.47c1.9,2.14,3.4,3.82,6.72,4.22,.31,.04,.68,.06,1.08,.08,1.12,.05,2.67,.12,3.08,.74,.16,.24,.15,.59-.02,1.07-.15,.41-.77,.86-1.37,1.29-.73,.53-1.57,1.14-1.95,1.95-1.29,2.69-.31,3.8,2.1,5.04,.26,.13,.52,.25,.76,.38,.92,.43,1.73,.82,2.41,1.58,.37,.41,.65,1,.94,1.61,.42,.85,.83,1.74,1.59,2.29,2.42,1.82,5.79,.2,7.58-.94,2.83-1.78,3.3-1.4,5.97,.64l.49,.37c1.64,1.25,3.14,1.36,4.6,1.46,1.07,.08,2.18,.16,3.39,.71,1.7,.77,2.86,2.42,3.99,4.02,.24,.34,.48,.67,.71,1l.28,.39c1.65,2.22,2.94,3.99,5.92,4.74,1.39,.36,2.74,.2,4.05,.04,1.2-.15,2.34-.29,3.44,0,1.83,.46,6.27,4.29,7.99,6.13,1.04,1.13,1.51,2.13,1.43,3.09-.1,1.16-.99,2.34-2.9,3.81-1.02,.79-2.32,1.35-3.58,1.91-2.02,.88-4.11,1.79-5.09,3.65-.33,.6-.49,1.28-.64,1.95-.2,.84-.38,1.62-.86,2.2-.47,.57-1.18,.95-1.93,1.34-.79,.42-1.62,.86-2.26,1.57-2.25,2.47-2.88,6.13-3.43,9.36-.08,.46-.16,.93-.24,1.37-.34,1.81-.9,2.3-1.92,3.18-.38,.33-.8,.7-1.29,1.2l-.26,.27c-.86,.87-1.68,1.69-1.52,3.28,.02,.16-.64,.39-1,.51-.75,.26-1.62,.55-2,1.29-.42,.8-.37,1.61-.32,2.33,.07,1,.11,1.72-.89,2.4-.68,.47-1.5,.76-2.36,1.07-.96,.35-1.95,.7-2.88,1.33-1.48,1.01-1.99,2.03-2.59,3.22-.24,.48-.49,.99-.83,1.54-.97,1.58-2.87,2.73-5.8,3.5-.78,.21-1.71,.2-2.6,.19-1.03,0-2.08-.03-3.02,.28-1.88,.6-2.34,1.76-2.89,3.09l-.17,.4c-.22,.52-.21,.91-.2,1.2,0,.34,.02,.47-.41,.85-.25,.21-.82,.27-1.39,.33-.84,.09-1.8,.2-2.31,.87-1.86,2.4,.08,4.21,1.64,5.65,1.44,1.34,2.27,2.23,1.77,3.27-.25,.49-1.26,.7-2.23,.9-.98,.21-1.98,.41-2.6,.98-.93,.86-1.3,1.82-1.66,2.76-.46,1.17-.84,2.17-2.28,2.96-1.12,.61-2.52,.7-3.88,.78-1.44,.09-2.92,.19-4.06,.93-1.57,1.02-2.02,3.18-2.43,5.08-.15,.69-.29,1.34-.47,1.87-1.17,3.43-3.65,5.24-6.52,7.34-.73,.53-1.48,1.08-2.22,1.67l-.6,.46c-1.62,1.25-2.59,2.02-3.47,4.2-.23,.56-.37,1.25-.51,1.93-.15,.74-.31,1.5-.56,1.95-.92,1.65-3.14,1.73-5.49,1.81-1.04,.03-2.12,.07-3.1,.26-2.91,.58-5.27,1.23-6.9,3.85-.58,.94-1.66,2.73-2.36,4.16-.22,.45-.34,.96-.45,1.45-.22,.95-.39,1.54-.91,1.75-.49,.19-1.02,.23-1.59,.27-1.12,.09-2.39,.19-3.14,1.59-.66,1.27-.18,2.32,.22,3.17,.27,.56,.52,1.1,.45,1.65-.11,.9-.64,1.75-1.26,2.62-5.03-1.98-10-4.13-14.9-6.43Z"/></svg>