<?xml version="1.0" encoding="UTF-8"?><svg id="Cyber_Space_Globe_Icons_Graphics" xmlns="http://www.w3.org/2000/svg" viewBox="0 0 612 612"><defs><style>.cls-1{fill:#1d1d1b;}</style></defs><path class="cls-1" d="M242.72,113.54c-2.07-1.04-4.2-2.1-5.97-3.57-2.67-2.22-4.75-4.89-6.75-7.49-.98-1.27-1.99-2.59-3.07-3.83-2.4-2.78-4.56-4.18-6.41-4.19-.1,0-.2,0-.3,0-1.45,.12-2.78,1.15-3.97,3.08-1.06,1.75-1.16,5.2-1.26,8.24-.06,1.99-.11,3.87-.4,5.32-.1,.46-.18,.9-.26,1.32-.44,2.22-.78,3.98-1.84,6.29-1.35,2.97-1.73,5.3-1.17,7.11,1.04,3.33,4.69,6.39,7.92,9.1,1.48,1.24,2.86,2.41,3.95,3.54l.55,.58c3.82,4.02,9.58,10.1,15.08,8.94,1.62-.34,2.71-1.07,3.34-2.24,1.55-2.92-.15-7.9-1.56-11.39l-.12-.29c-.78-1.83-2.39-5.65-.71-7.32,.92-.91,3.22-.82,5.92-.63,.6,.04,1.12,.07,1.48,.08,2.13-.01,3.63-.73,4.26-2,.71-1.49,.18-3.6-1.43-5.65-1.76-2.24-4.43-3.58-7.26-5Z"/><path class="cls-1" d="M436.94,209.49c-.72-.11-1.41-.23-2,0,.06,.03,.12,.06,.18,.1,.14,.08,.23,.23,.24,.39,.04,.47,0,.96-.01,1.43-.05,1.11-.1,2.15,.54,2.89,.8,.92,1.1,1,1.14,1,.07-.02,.24-.25,.35-.41,.28-.37,.66-.88,1.31-1.23,.1-.05,.21-.26,.33-.46,.22-.38,.52-.91,1.13-1.19,.4-.19,.87-.11,1.32-.04,.25,.04,.57,.09,.71,.05,.45-.12,.87-.09,1.24-.06,.59,.04,.89,.05,1.18-.29,.16-.19,.01-1.09-.06-1.58-.11-.72-.22-1.39-.04-1.87,.3-.76,.86-1.16,1.35-1.51,.39-.27,.75-.53,1-.95,.77-1.33,1.09-2.83,.88-4.16-1.29,1.63-2.87,2.95-3.97,2.47-.86-.38-1.04-1.58-.56-3.66,.11-.48,.38-.83,.62-1.14,.44-.57,.68-.88,.04-1.81-.62-.89-1.47-1.07-2.46-.53-.36,.2-.76,.85-1.16,1.48-.44,.71-.89,1.45-1.47,1.86-.51,.36-1.09,.5-1.6,.63-.77,.19-1.26,.34-1.52,.88-.37,.78-.36,1.46,.03,2.1,.73,1.17,2.68,1.92,4.09,1.93,.27,0,.49,.22,.49,.5,0,1.47-.27,2.39-.86,2.88-.69,.59-1.61,.44-2.5,.28Z"/><path class="cls-1" d="M413.5,235.4c.04-14-11.76-25.41-26.29-25.45-14.54-.04-26.4,11.31-26.44,25.31-.04,14,11.76,25.42,26.3,25.46,14.53,.04,26.39-11.32,26.43-25.32Z"/><path class="cls-1" d="M502.18,109.1h0c-51.69-52.6-120.52-81.68-193.84-81.87-.25,0-.5,0-.75,0-73.02,0-141.73,28.69-193.51,80.83-51.95,52.31-80.67,121.96-80.87,196.13-.2,74.17,28.15,143.97,79.82,196.56,51.69,52.61,120.53,81.69,193.83,81.88,.25,0,.5,0,.75,0,73.03,0,141.73-28.69,193.53-80.84,37.44-37.7,63.17-84.93,74.38-136.48,.1-.43,.19-.85,.27-1.27,4.07-19,6.16-38.64,6.21-58.37,.2-74.16-28.15-143.97-79.81-196.56Zm43.89,162.6c.93-3.5,4.59-6.35,7.56-7.27,1.77-.55,3.5-.37,5.19-.22,2.6,.25,4.84,.46,6.61-2.08,.62-.9,1.04-2.91,1.43-4.86,.2-.95,.4-1.9,.63-2.8,.94,5.01,1.73,10.05,2.38,15.13-2.37,1.38-5.46,2.06-8.06,2.63-.77,.17-1.5,.33-2.14,.49-1.52,.39-2.9,1.76-4.25,3.09-1.59,1.58-3.1,3.06-4.88,3.06h-.05c-1.02-.02-1.99-.54-2.96-1.57-1.51-1.61-2.02-3.56-1.46-5.61Zm-238.47,301.08c-.24,0-.48,0-.72,0-37.99-.1-74.73-8.27-108.33-23.67,.77,0,1.53-.02,2.28-.07,8.28-.49,13.82-2.85,19.09-8.16,3.41-3.42,7.27-4.59,11.36-5.83,1.22-.37,2.48-.75,3.77-1.21,2.65-.93,7.08-2.49,8.05-5.82,.46-1.61-.03-3.91-.42-5.76-.12-.56-.24-1.09-.32-1.57-.77-4.44-1.92-11.17-.27-16.46,1.78-5.68,5.91-8.02,11.15-10.5,4.13-1.95,8.99-4.11,14.38-4.94,1.64-.26,3.34-.41,5.13-.58,4.5-.42,9.15-.86,12.89-2.91,3.49-1.91,6.6-6.71,8.46-9.59,.4-.61,.85-1.49,1.34-2.43,1.65-3.22,3.89-7.56,7.17-7.68,.91-3.2,4.45-4.94,7.6-6.48,1.3-.65,2.53-1.25,3.5-1.91,.61-.42,1.2-.79,1.77-1.15,2.47-1.57,4.44-2.81,4.99-6.03,.18-1.07,.14-2.27,.1-3.44-.03-.75-.06-1.53-.01-2.26,.21-4.78,1.41-7.51,4.57-10.45,.71-.66,1.55-1.28,2.36-1.87,1.94-1.43,3.95-2.92,4.47-5.14,1.06-4.44,.5-8.8-1.49-11.67-1.39-2.01-3.4-3.2-5.96-3.52-1.09-.13-2.22-.13-3.3-.12-2.28,.01-4.64,.03-6.68-1.36-2.31-1.58-3.36-3.68-4.48-5.91l-.22-.45c-.28-.55-.59-1.31-.91-2.12-.78-1.94-1.77-4.34-2.84-5.25-.84-.7-1.87-1.02-2.76-.83-.82,.17-1.49,.74-1.95,1.64-.44,.9-1.19,1.47-2.19,1.67-3.53,.72-9.11-3.23-10.31-4.25-2.81-2.4-4.6-5.31-6.32-8.13-1.52-2.48-3.09-5.05-5.36-7.22-1.85-1.75-4.17-2.84-6.64-3.99-2.59-1.21-5.26-2.45-7.39-4.57-2.05-2.05-3.84-4.27-5.55-6.41-2.29-2.87-4.66-5.83-7.72-8.38-.46-.38-.87-.74-1.25-1.08-1.85-1.64-2.96-2.63-5.74-2.8-3.18-.19-6.22,.25-9.57,.8-6.07,1-12.08,.74-16.92-.74-2.16-.67-4.17-1.64-6.11-2.59-3.53-1.71-6.85-3.34-10.95-3.13-2.09,.1-4.18,.41-6.2,.69-7.03,1.01-13.68,1.96-19.13-4.98-2.15-2.75-4.11-5.73-6.01-8.62-2.4-3.66-4.89-7.43-7.78-10.76-2.49-2.85-5.99-5.3-9.68-7.9-6.52-4.57-13.26-9.3-14.82-16.68-.73-3.43-.32-6.26,1.21-8.41,1.72-2.4,4.77-3.88,9.07-4.4,2.18-.26,3.82-1.46,5.56-2.73,1.96-1.43,4-2.92,6.93-3.1,5.98-.37,12.04,2.44,16.22,7.54,2.37,2.91,2.97,6.25,3.54,9.48,.41,2.35,.85,4.77,1.97,6.96,.72,1.38,1.68,2.49,2.7,3.67,.88,1,1.77,2.04,2.51,3.27,.29,.49,.56,.97,.82,1.44,.96,1.71,1.78,3.18,3.36,4.5,2.89,2.42,6.86,3.83,10.7,5.2,1.5,.52,3.05,1.08,4.49,1.68,3.7,1.53,8.15,3,13.23,2.29,2.24-.32,3.53-.99,3.64-1.88,.18-1.57-2.92-4.08-5.72-5.18-3.02-1.2-6.21-1.71-9.28-2.2-1.52-.23-3.09-.49-4.62-.81-5.98-1.29-9.76-6.62-12.83-11.51-2.21-3.53-1.94-7.24-1.67-10.82,.1-1.43,.21-2.91,.17-4.38-.05-1.68-.37-3.44-.69-5.14-.64-3.54-1.32-7.21,.29-10.75,.61-1.36,1.58-2.31,2.51-3.22,.73-.72,1.42-1.4,1.96-2.26,.7-1.14,1.02-2.49,1.35-3.92,.27-1.15,.55-2.35,1.05-3.44,1.41-3.1,4.86-8.23,8.94-8.08,1.38-1.11,2.51-2.54,3.68-4.07,1.87-2.41,3.8-4.91,6.91-5.95,1.36-.46,2.76-.42,4.11-.39,1.41,.02,2.75,.06,4.03-.43,2.63-1.02,3.91-3.1,5.25-5.31,.96-1.59,1.96-3.22,3.51-4.46,2.8-2.24,5.83-1.76,8.77-1.31,3.44,.54,6.42,1.01,8.74-2.77,.49-.8,.87-2.04,1.27-3.34,.92-3.01,1.96-6.42,5.03-6.7,1.18-.11,1.97,.44,2.66,.92,.63,.44,1.16,.82,1.99,.8,.98-.03,1.36-.46,1.84-1,.36-.41,.77-.88,1.48-1.17,1.92-.8,3.29-.9,4.3-.31,1.27,.73,1.7,2.4,1.97,4.69,.35,3.07,.61,4.23,3.06,6.27,6.67,5.53,13.31-.95,15.2-3.07,1.06-1.21,1.59-2.47,1.49-3.65-.08-1-.59-1.9-1.54-2.68-1.02-.83-2.73-.99-4.39-1.13-1.73-.15-3.37-.3-4.14-1.28-.37-.48-.5-1.1-.38-1.85,.19-1.13,.76-2.13,1.31-3.1,1.04-1.83,1.87-3.27-.03-5.17-.77-.77-1.95-1.18-3.19-1.61-2.04-.7-4.35-1.49-4.8-4.23-.23-1.4,.33-2.82,.87-4.2,.67-1.72,1.32-3.35,.53-4.9-.66-1.3-3.31-2.71-5.45-3.83-1.14-.59-2.22-1.17-2.91-1.67-1.7-1.24-2.28-2.56-2.85-3.82-.45-1-.87-1.95-1.84-2.95-.88-.9-2.13-1.58-3.34-2.22-1.68-.89-3.41-1.81-4.36-3.44-1.05-1.78-.73-4.03-.42-6.21,.47-3.3,.87-6.16-3.27-7.16-2.4-.58-4.52,.19-6.58,.93-2.13,.77-4.33,1.57-6.68,.71-.62-.22-1.14-.49-1.65-.74-.8-.41-1.55-.8-2.54-.92-.37-.04-.65,.05-.99,.15-.38,.12-.81,.26-1.39,.19-2.77-.37-3.46-1.36-4.59-2.99-.27-.39-.58-.83-.96-1.32l-.09-.12c-1.21-1.56-2.85-3.69-4.48-4.73-1.3-.83-2.36-.81-3.59-.78-.79,0-1.7,.04-2.73-.2-2.08-.45-3.93-1.52-5.71-2.56-3.3-1.91-6.43-3.72-10.73-1.6-1.72,.86-2.65,1.67-2.79,2.43-.15,.92,.87,1.95,1.97,3.05,1.25,1.25,2.66,2.67,2.82,4.44,.16,1.62-.47,2.56-1.06,3.47-.4,.61-.77,1.19-.93,1.98-.41,2.05,.54,2.97,1.85,4.24,.23,.23,.47,.46,.7,.7,.21,.21,.42,.42,.63,.62,1.48,1.42,2.99,2.91,1.4,6.11-.98,1.99-1.96,2.02-3.43,2.09-.29,0-.61,.02-.97,.05-.53,.05-1.05,.05-1.54,.05-1.47,0-2.62,0-3.6,1.15-.34,.4-.42,1.08-.5,1.81-.13,1.06-.28,2.26-1.29,3.02-.85,.63-1.72,.87-2.57,.7-1.93-.37-3.32-2.62-4.45-4.43-.21-.33-.4-.64-.59-.92-2.41-3.64-4.48-3.28-7.61-2.75-.71,.12-1.45,.25-2.25,.34-4.3,.49-6.7-3.5-8.63-6.69-.39-.64-.76-1.26-1.13-1.8-2.6-3.86-5.18-6.72-8.63-9.58-3.82-3.17-4.48-7.24-1.88-11.47,2.01-3.26,5.25-4.5,8.39-5.69,1.98-.75,4.04-1.54,5.81-2.83,.34-.26,.72-.52,1.11-.81,1.81-1.29,4.07-2.9,5.1-4.53,.63-1.01,1-1.95,1.35-2.86,.61-1.57,1.19-3.04,2.96-4.57,1.8-1.57,4.01-2.61,6.14-3.61,2.27-1.08,4.63-2.2,6.42-3.92,1.38-1.34,2.89-4.27,1.73-6.31-.52-.88-1.46-1.34-2.46-1.84-1.08-.53-2.2-1.09-2.96-2.2-3.09-4.43-1.09-7.2,.84-9.89,1.05-1.46,2.14-2.97,2.46-4.79,.28-1.54-.14-2.93-.58-4.39-.37-1.21-.75-2.46-.72-3.84,.06-2.68,1.23-4.17,2.72-6.05,2.52-3.19,4.02-8.17,3.48-12.4,11.85-5.79,24.11-10.67,36.7-14.58,.49,2.09,1,4.08,2.9,6.01,2.56,2.62,5.31,5.42,8.14,8.58,4.13,4.59,9.46,5.13,15.08,5.7,4.59,.46,9.33,.93,13.36,3.79,3.5,2.47,7.31,5.66,10.74,8.98,2.94,2.84,2.98,5.33,3.03,8.21,.03,1.37,.04,2.79,.38,4.4,.69,3.3,2.66,6.56,4.56,9.7,3.54,5.86,7.2,11.91,3.18,18.78-.24,.39-.49,.78-.73,1.16-1.07,1.64-1.99,3.05-1.34,5.17,.37,1.17,1.11,2.06,1.91,3,1.07,1.25,2.16,2.54,2.27,4.53,.07,1.19-.2,2.14-.43,2.98-.36,1.27-.64,2.28,.16,3.83,1.38,2.68,4.43,5.53,6.88,7.82l.77,.71c4.71,4.43,8.39,6.6,11.26,6.63h.06c4.81,.01,8.77-4.7,11.68-8.81,.37-.52,.79-1.14,1.24-1.81,2.08-3.1,4.94-7.35,7.69-8.57,2.06-.91,3.95-.9,5.61-.88,2.37,.03,4.4,.04,6.52-2.45,2.14-2.51,2.79-2.66,5.22-2.85,.5-.05,1.1-.09,1.81-.18,3.44-.39,5.12-2.29,7.43-4.9,.34-.38,.62-.71,.9-1.03,1.86-2.15,3.46-4.01,6.67-4.63,1.63-.31,3.25-.29,4.83-.28,1.83,.01,3.55,.04,5.3-.41,3.23-.81,5.58-2.3,7.37-4.69,.77-1.04,1.22-2.38,1.65-3.68,.51-1.55,1.05-3.15,2.16-4.3,.97-1.02,2.35-1.54,3.69-2.05,1.58-.61,3.07-1.18,3.91-2.5,1.1-1.75,.65-3.56,.15-5.47-.13-.51-.26-1-.36-1.5l-.11-.54c-.5-2.51-.91-4.5,1.64-6.54,1.3-1.04,2.84-1.54,4.34-2.02,2.39-.77,4.46-1.44,5.08-4.16,.48-2.04-.53-3.74-1.59-5.55-1.38-2.35-2.82-4.79-.68-7.86,1.23-1.78,3.53-2.44,5.74-3.07,1.65-.48,3.36-.97,4.5-1.91,1.37-1.14,2.83-2.97,3.47-5.08,28.54,13.21,54.81,31.65,77.6,54.85,7.96,8.1,15.34,16.63,22.13,25.53-1.36,1.04-3.19,1.79-4.88,2.47-1.33,.53-2.57,1.02-3.46,1.6-2.03,1.31-2.7,3.32-3.39,5.46-.64,1.94-1.3,3.95-3.01,5.61-1.64,1.6-3.81,2.63-5.9,3.62-2.39,1.13-4.87,2.31-6.46,4.31-.97,1.24-1.95,4.23-1.32,5.6,.43,.93,.99,1.1,1.75,1.34,.73,.23,1.63,.51,2.41,1.55,.84,1.1,.92,2.58,1,4.02,.05,.98,.1,1.91,.38,2.64,.14,.37,.23,.67,.31,.92,.14,.45,.23,.74,.55,1.19,.3,.13,.75,.42,1.48,.9,.58,.39,.96,.64,1.17,.84,1.75,.38,3.12-.47,4.55-1.38,1.85-1.16,3.95-2.48,6.8-.54,2.07,1.41,3.53,4.25,2.39,6.59-.42,.87-1.25,1.32-1.91,1.67-.37,.2-.84,.44-.86,.62-.01,.09,.04,.44,1.03,1.33,.48,.43,1.06,.63,1.68,.85,.84,.3,1.79,.63,2.57,1.6,.45,.56,.46,1.14,.46,1.61,0,.61,0,.94,.96,1.3,1.85,.71,4.7-1.99,5.7-3.31,.57-.76,.82-1.53,1.09-2.35,.38-1.15,.77-2.34,2.05-3.38,1.07-.88,2.19-1.43,3.28-1.96,1.45-.72,2.82-1.39,4.06-2.81,2.76-3.19,5.15-6.26,6.33-10.34,2.34,4.17,4.56,8.4,6.66,12.68-2.76,1.61-3.85,3.78-3.75,7.12,.02,.65,.16,1.36,.3,2.1,.3,1.47,.59,2.99,0,4.37-1.3,3.01-5.27,3.47-8.27,2.95-.78-.14-1.45-.37-2.1-.6-1.41-.48-2.52-.87-4.02,.04-.88,.53-1.33,1.36-1.81,2.24-.6,1.11-1.22,2.25-2.7,2.84-2.76,1.13-4.52-.57-6.06-2.07l-.18-.18c-1.24-1.19-2.43-1.89-3.68-2.61-.93-.54-1.88-1.09-2.92-1.88-1.23-.93-2.17-2.47-3.1-3.96-1.62-2.63-3.17-5.13-6.06-4.44-2.98,.71-5.02,3.6-6.99,6.4-1.34,1.91-2.74,3.88-4.43,5.15-1.23,.92-2.57,1.66-3.89,2.38-.83,.46-1.69,.93-2.5,1.43-2.15,1.36-3.65,3.33-5.23,5.41-.42,.56-.84,1.12-1.28,1.67-.4,.5-.76,1.06-1.1,1.59-.93,1.43-1.9,2.89-3.72,3.53-1.49,.52-3.13,.22-4.72-.06-1.15-.2-2.24-.4-3.21-.28-2.84,.33-10.15,5.34-11.68,9.07-.36,.88-.34,1.55,.06,2.06,.18,.23,.62,.34,1.09,.46,.76,.2,1.7,.45,2.13,1.4,.57,1.24-.03,2.42-.54,3.47-.27,.53-.51,1.04-.58,1.48-.22,1.51,.35,2.43,.96,3.4,.63,.98,1.26,2,1.07,3.58-.02,.25-.23,.43-.48,.44-.46,0-1.01-.04-1.58-.09-.96-.09-2.05-.19-2.72,.04-.64,.22-1.19,.77-1.77,1.35-.54,.55-1.1,1.11-1.79,1.45-2.33,1.14-4.17,.18-5.95-.76-1.23-.64-2.5-1.31-4.02-1.37-3.64-.11-7.95,3.38-8.69,7.09-.28,1.39,.2,2.41,.71,3.49,.42,.86,.85,1.75,.89,2.87,.07,1.31-.57,2.54-1.17,3.74-.82,1.62-1.61,3.15-.86,4.88,.86,1.99,4.65,4.46,7.15,6.1,.52,.33,.99,.64,1.39,.91,1.17,.79,3,1.76,4.31,1.86,1.06,.08,1.57-.28,2.17-.68,.52-.37,1.1-.78,2.04-.88,1.23-.15,2.05,.26,2.85,.65,.46,.22,.93,.45,1.51,.59,2.39,.57,3.07-.1,4.57-1.57,.28-.27,.57-.56,.91-.87,.46-.43,.99-1.01,1.56-1.62,.99-1.09,2.04-2.2,2.99-2.84,1-.67,1.95-.92,2.86-1.18,1.14-.32,2.21-.61,3.28-1.71,1.35-1.38,1.81-2.8,2.29-4.3,.64-1.96,1.28-3.99,3.96-5.81,2.44-1.68,4.63-1.76,6.75-1.82,1.92-.06,3.72-.12,5.68-1.36,4.01-2.53,6.01-3.48,11.2-3.48t.02,0c5.19,.01,11.96,2.1,13.99,7.96,.39,1.13,.31,2.28,.23,3.39-.06,.89-.12,1.72,.05,2.52,.2,.88,.68,1.68,1.18,2.52,.56,.93,1.13,1.9,1.36,3.03,.13,.66,.03,1.36-.08,2.05-.11,.79-.22,1.53,.05,1.96,.62,.93,1.35,1.37,2.19,1.33,2.45-.1,5.59-4.08,6.73-6.18,.29-.53,.5-.99,.69-1.4,.75-1.59,1.17-2.47,3.69-3.1,2.92-.73,5.73,.19,7.5,2.45,1.21,1.53,1.92,3.66,2.6,5.7,.98,2.9,1.99,5.92,4.38,7.1,.87,.43,1.76,.56,2.69,.7,1.52,.22,3.1,.45,4.49,2.06,.77,.88,1.14,2.14,1.51,3.35,.57,1.88,1.1,3.65,2.91,4.1,1.78,.43,2.46-.51,3.31-1.7,.6-.84,1.28-1.79,2.45-2.15,2.56-.79,4.8,1.58,6.58,3.5,.45,.47,.87,.92,1.25,1.26,1.01,.92,1.99,2.08,3.02,3.3,1.07,1.27,2.17,2.56,3.33,3.62,.08,2.55,.13,5.11,.13,7.67-5.28-4.71-11.58-8.75-18.21-7.98-2.63,.3-4.7,1.57-6.9,2.9-1.43,.88-2.92,1.78-4.6,2.42-5.91,2.24-11.93,2.53-16.1,.77-5.26-2.21-10.47-5.68-14.69-9.76-1.93-1.86-3.48-3.98-4.98-6.02-1.39-1.89-2.69-3.67-4.26-5.27-6-6.14-19.59-8.24-28.5-6.37-1.39,.29-2.75,1.17-4.07,2.02-.79,.51-1.6,1.04-2.43,1.44-2.93,1.42-6.07,2.15-9.87,2.31-2.19,.08-4.11-.14-5.97-.37-3.82-.46-7.12-.85-11.06,1.88-4.45,3.07-7.53,6.66-10.19,10.08l-.16,.21c-2.13,2.73-4.32,5.56-6.76,8.06-1.83,1.88-3.92,3.21-5.92,4.48-1.32,.85-2.68,1.71-3.97,2.74-4.37,3.47-7.05,8.43-7.77,14.36-.39,3.3-1.91,6.12-3.37,8.86-1.38,2.57-2.67,4.99-3.15,7.79-1.02,5.94-.91,15.26,1.04,19.94,3.54,8.51,13.25,16.52,17.25,19.56,8.17,6.22,17.08,12.15,28.05,10.49,1.95-.29,3.54-1.38,5.24-2.53,1.73-1.18,3.54-2.4,5.75-2.7,3.36-.46,5.43,1.35,7.41,3.12,1.22,1.07,2.48,2.2,4.08,2.83,2.69,1.07,5.88,1.12,8.97,1.16,5.8,.08,11.79,.16,14.48,7.05,1.82,4.64-1.34,7.42-4.4,10.1-2.05,1.81-4.19,3.69-4.88,6.16-1.4,5.12,2.04,12.77,5.82,15.69l1.03,.79c3.43,2.61,6.41,4.87,6.64,9.4,.14,2.93-.73,5.35-1.59,7.69-.53,1.47-1.1,3-1.36,4.6-.07,.39-.15,.82-.23,1.27-.38,1.97-.84,4.42-.46,5.99,.39,1.53,1.29,2.92,2.26,4.4,.78,1.19,1.58,2.42,2.09,3.74,1.6,4.21,1,7.87,.37,11.75-.2,1.21-.41,2.45-.54,3.73-.25,2.27-.49,4.89-.35,7.27,.05,.9,.26,1.72,.52,2.51-.74,.77-1.48,1.53-2.24,2.29-49.94,50.28-116.15,77.94-186.54,77.94Z"/></svg>