<svg width="339" height="204" viewBox="0 0 339 204" fill="none" xmlns="http://www.w3.org/2000/svg">
<path d="M338.994 102.003C338.994 97.1925 338.52 92.4701 337.592 87.8488H337.624L337.611 87.1039H337.434C336.014 80.4245 333.628 73.9597 330.276 67.7475V67.6907H330.244C328.868 65.1464 327.334 62.6464 325.636 60.1905C322.511 55.6702 318.875 51.3456 314.747 47.2294V46.9769H314.501C307.481 40.026 299.041 33.6812 289.276 27.9993C288.569 27.5889 287.849 27.1849 287.136 26.7871V26.6924H286.971C278.677 22.0648 269.612 17.9991 259.909 14.5205C257.189 13.403 255.573 12.8917 255.528 12.8727L255.49 12.9927C235.593 6.36376 213.209 2.15282 189.498 0.643954C189.195 0.486123 189.025 0.404051 189.012 0.397738L188.918 0.606076C186.109 0.429305 183.287 0.296721 180.446 0.195709L180.44 0.17677L180.389 0.195709C176.785 0.0694442 173.155 0 169.5 0C166.161 0 162.834 0.0631317 159.526 0.17677H159.513C156.673 0.277782 153.845 0.416672 151.036 0.599757L150.941 0.391418C150.941 0.391418 150.758 0.4735 150.455 0.637644C143.618 1.0922 136.87 1.79927 130.248 2.73995L130.229 2.69576C130.229 2.69576 130.172 2.72101 130.103 2.75889C121.398 4.0026 112.895 5.64405 104.663 7.68954H103.786V7.91682C83.8315 12.9611 65.4997 20.335 49.7245 29.8112C49.0806 30.2026 48.4493 30.594 47.8117 30.9854H47.6855V31.0612C37.7684 37.2229 29.2905 44.0033 22.353 51.2636H22.2267V51.3898C7.72664 66.6237 0 83.9409 0 101.978C0 115.987 3.93276 129.289 11.6783 141.518C19.3924 153.69 30.6919 164.473 45.2614 173.583C62.1603 184.145 82.8026 192.068 106.412 197.182C106.841 197.302 107.081 197.358 107.094 197.365V197.333C118.892 199.852 131.416 201.67 144.578 202.769C145.209 202.92 145.569 202.996 145.607 203.002L145.632 202.864C153.378 203.482 161.338 203.861 169.5 203.975C170.781 203.994 172.063 204 173.344 204C176.936 204 180.522 203.924 184.095 203.779V203.798C184.095 203.798 184.126 203.785 184.158 203.773C208.43 202.794 232.115 198.52 253.382 191.222C259.543 189.107 265.471 186.759 271.133 184.189L271.152 184.227C271.152 184.227 271.461 184.069 271.96 183.798C288.562 176.159 302.848 166.638 313.895 155.748C330.32 139.554 339 120.962 339 101.978L338.994 102.003ZM317.764 150.533L312.317 150.615C315.208 147.067 317.954 143.254 320.422 139.182C322.158 136.322 323.641 133.342 324.885 130.268L331.677 130.141C328.3 137.231 323.648 144.106 317.771 150.64V150.533H317.764ZM232.822 196.411C221.68 199.076 210.084 200.976 198.26 202.093C202.464 200.875 209.333 198.564 217.287 194.656L238.838 194.454C235.139 195.786 232.872 196.342 232.809 196.355L232.822 196.411ZM240.883 193.684L218.808 193.892C227.98 189.221 238.427 182.434 247.852 172.794L275.224 172.307C272.2 175.111 269.201 177.56 266.336 179.675C256.62 186.853 247.24 191.228 240.883 193.684ZM11.8677 115.716L33.7851 115.324C34.5994 121.94 36.1523 128.5 38.4817 134.876L18.1803 135.255C14.9988 129.119 12.8777 122.515 11.874 115.716H11.8677ZM17.3471 135.268L9.01441 135.425C5.73817 129.156 3.42775 122.629 2.09579 115.892L11.1165 115.728C12.1139 122.521 14.2034 129.125 17.3471 135.268ZM12.2843 94.5093L33.7346 94.0674C32.9266 100.854 32.9077 107.736 33.6904 114.573L11.7604 114.964C10.8451 108.234 11.0029 101.321 12.278 94.5093H12.2843ZM328.692 109.27L308.194 109.636C308.232 109.39 308.27 109.156 308.308 108.91C308.542 101.984 307.936 95.1596 306.509 88.4802L326.11 88.0761C328.161 95.046 329.007 102.212 328.685 109.27H328.692ZM331.999 129.384L325.182 129.51C327.612 123.279 329.026 116.694 329.405 110.002L337.744 109.851C336.892 116.492 334.966 123.052 332.006 129.441V129.377L331.999 129.384ZM324.374 129.529L303.359 129.92C305.373 123.948 306.989 117.452 308.081 110.393L328.66 110.021C328.275 116.719 326.842 123.304 324.38 129.529H324.374ZM34.4984 94.0548L64.4076 93.4424C64.1425 96.3086 63.9783 99.1938 63.9531 102.098C63.9215 106.107 64.1235 110.084 64.5528 114.017L34.4479 114.56C33.6589 107.729 33.6778 100.842 34.4921 94.0548H34.4984ZM51.8203 51.5919L78.087 51.2068C74.0217 58.0756 70.8023 65.3547 68.4729 72.918L39.5612 73.4988C42.4334 65.9545 46.3851 58.7511 51.4036 52.1474C51.5425 51.9644 51.6877 51.7813 51.8266 51.5982L51.8203 51.5919ZM307.57 108.847C307.532 109.118 307.481 109.383 307.443 109.648L275.735 110.217C275.924 107.527 276.019 104.813 275.994 102.092C275.956 97.7228 275.628 93.3982 275.047 89.1178L305.758 88.4865C307.191 95.147 307.803 101.94 307.57 108.84V108.847ZM64.7043 102.104C64.7296 99.1938 64.8937 96.3023 65.1588 93.4235L105.061 92.609C104.865 94.5472 104.695 96.4349 104.562 98.2594C104.196 103.089 104.297 107.931 104.853 112.654C104.878 112.868 104.903 113.083 104.935 113.298L65.3103 114.011C64.8811 110.084 64.6727 106.113 64.7106 102.11L64.7043 102.104ZM234.526 110.962L196.026 111.656C196.07 110.185 196.108 108.701 196.133 107.18C196.24 101.58 196.19 96.0876 196.013 90.7403L233.851 89.9638C234.179 92.8553 234.438 95.6457 234.64 98.3099C234.962 102.546 234.918 106.795 234.52 110.962H234.526ZM144.698 112.578C144.641 110.804 144.597 109.011 144.559 107.167C144.458 101.934 144.496 96.8073 144.647 91.7946L195.268 90.7593C195.445 96.094 195.495 101.574 195.388 107.167C195.357 108.695 195.319 110.191 195.281 111.669L144.698 112.578ZM195.262 112.414C195.053 119.44 194.7 125.943 194.227 131.953L145.802 132.856C145.316 126.846 144.944 120.349 144.723 113.316L195.262 112.407V112.414ZM105.597 112.559C105.048 107.881 104.947 103.089 105.313 98.3099C105.459 96.3591 105.635 94.4651 105.825 92.5901L143.909 91.8073C143.757 96.82 143.719 101.946 143.82 107.18C143.858 109.017 143.902 110.816 143.959 112.59L105.692 113.279C105.661 113.039 105.629 112.799 105.604 112.559H105.597ZM143.928 91.0623L105.894 91.8388C106.601 85.0268 107.573 78.7073 108.747 72.8549L145.083 72.1289C144.54 78.1959 144.136 84.5218 143.928 91.0623ZM145.834 72.1162L194.031 71.1503C194.593 77.1921 195.009 83.4927 195.243 90.0143L144.673 91.0497C144.887 84.5091 145.291 78.1833 145.834 72.1162ZM195.988 90.0017C195.754 83.4864 195.338 77.1795 194.776 71.1377L230.688 70.418C232.083 76.9396 233.074 83.2907 233.769 89.2252L195.988 90.0017ZM231.446 70.4053L269.618 69.6414C271.739 75.7148 273.267 81.9902 274.188 88.3981L234.52 89.2125C233.826 83.2781 232.841 76.9269 231.446 70.4053ZM231.288 69.6604C229.811 62.8736 227.892 55.9101 225.405 49.035L259.341 48.5363C263.463 54.9695 266.815 61.7941 269.359 68.9028L231.288 69.6667V69.6604ZM230.524 69.673L194.706 70.3927C194.006 63.0062 193.103 56.0174 192.087 49.5274L224.609 49.0476C227.109 55.9164 229.041 62.8863 230.524 69.6793V69.673ZM193.955 70.4053L145.897 71.365C146.592 63.8585 147.494 56.7624 148.511 50.1651L191.329 49.5337C192.345 56.0238 193.248 63.0125 193.955 70.4053ZM145.146 71.3839L108.893 72.1099C110.528 64.111 112.541 56.9834 114.757 50.6701L147.753 50.184C146.737 56.7814 145.834 63.8838 145.146 71.3902V71.3839ZM108.135 72.1225L69.2431 72.8991C71.5977 65.3295 74.855 58.0503 78.9582 51.1941L113.962 50.6764C111.468 57.8483 109.568 65.1022 108.135 72.1225ZM107.984 72.8738C106.664 79.5027 105.749 85.917 105.13 91.8578L65.2282 92.6722C65.8848 86.1885 67.1536 79.8247 69.0221 73.644L107.984 72.8675V72.8738ZM105.01 114.036C105.762 120.021 106.866 126.644 108.489 133.557L69.6723 134.283C67.6018 127.957 66.1625 121.416 65.3861 114.743L105.01 114.03V114.036ZM105.762 114.024L143.959 113.335C144.186 120.362 144.553 126.865 145.045 132.875L109.252 133.544C107.624 126.631 106.513 120.009 105.762 114.024ZM145.102 133.62C145.695 140.76 146.459 147.206 147.336 153.021L115.338 153.488C112.857 147.036 110.925 140.552 109.423 134.289L145.102 133.62ZM145.847 133.607L194.144 132.704C193.557 139.952 192.8 146.48 191.922 152.364L148.081 153.008C147.198 147.2 146.44 140.754 145.847 133.607ZM194.896 132.692L231.023 132.016C229.565 138.456 227.645 145.173 225.152 151.878L192.674 152.351C193.557 146.461 194.309 139.927 194.896 132.686V132.692ZM194.959 131.947C195.432 125.93 195.786 119.421 195.994 112.407L234.438 111.719C234.406 112.003 234.381 112.287 234.35 112.572C233.674 118.279 232.67 124.624 231.193 131.278L194.965 131.953L194.959 131.947ZM235.088 112.654C235.126 112.338 235.158 112.022 235.189 111.7L274.908 110.987C274.384 117.635 273.21 124.175 271.405 130.52L231.951 131.259C233.415 124.642 234.413 118.336 235.082 112.654H235.088ZM235.265 110.955C235.656 106.776 235.7 102.515 235.378 98.2594C235.176 95.6142 234.918 92.8363 234.596 89.9575L274.283 89.1431C274.87 93.4171 275.198 97.7417 275.236 102.104C275.262 104.831 275.167 107.54 274.971 110.236L235.265 110.949V110.955ZM274.927 88.3855C274.005 81.9838 272.49 75.7085 270.388 69.6288L298.991 69.0543C301.939 75.134 304.135 81.3841 305.568 87.7542L274.921 88.3792L274.927 88.3855ZM270.136 68.8839C267.617 61.7815 264.297 54.9568 260.212 48.5236L285.355 48.1511C289.787 53.4732 293.581 58.9784 296.706 64.635C297.381 65.8535 298.012 67.0846 298.625 68.3157L270.136 68.8839ZM259.726 47.7787C259.215 46.9895 258.71 46.2003 258.173 45.4238C253.723 38.9338 248.812 33.2014 243.875 28.2076L264.208 27.8414C266.323 29.4955 268.457 31.2443 270.584 33.1067C275.836 37.6901 280.552 42.4692 284.73 47.4062L259.726 47.7724V47.7787ZM257.561 45.8468C258.003 46.4844 258.419 47.141 258.842 47.7913L225.114 48.29C222.646 41.5854 219.641 34.9817 215.973 28.719L242.853 28.2328C247.928 33.3087 252.984 39.18 257.561 45.8531V45.8468ZM224.319 48.2963L191.954 48.7762C190.818 41.598 189.549 35.0385 188.286 29.2114L215.109 28.7253C218.808 34.9754 221.838 41.5854 224.319 48.2963ZM191.196 48.7825L148.612 49.4138C149.735 42.2483 150.991 35.6888 152.248 29.8617L187.516 29.224C188.785 35.0385 190.054 41.6043 191.19 48.7825H191.196ZM147.854 49.4201L115.01 49.9062C117.756 42.2356 120.805 35.7646 123.86 30.3667L151.484 29.868C150.228 35.7014 148.978 42.2609 147.854 49.4201ZM114.208 49.9189L79.4001 50.4302C80.347 48.8835 81.3191 47.343 82.3481 45.8405C86.1419 40.3101 90.2704 35.3353 94.462 30.897L122.982 30.3857C119.454 36.661 116.562 43.2521 114.202 49.9189H114.208ZM81.7357 45.4175C80.6058 47.0653 79.5453 48.7446 78.5226 50.4429L52.3821 50.828C58.2402 43.3468 64.8684 36.8378 71.4462 31.3137L93.4204 30.916C89.374 35.2406 85.397 40.0765 81.7357 45.4175ZM68.2267 73.6567C66.3708 79.8373 65.1146 86.2011 64.4644 92.6785L34.5742 93.2909C35.4075 86.8008 36.9667 80.4055 39.2518 74.2312L68.233 73.6504L68.2267 73.6567ZM64.6222 114.75C65.3924 121.416 66.819 127.957 68.8769 134.289L39.2455 134.845C36.8972 128.475 35.3317 121.909 34.5111 115.293L64.6159 114.75H64.6222ZM69.1168 135.028C71.3199 141.625 74.2174 147.983 77.7714 154.024L49.3583 154.441C47.6602 151.909 46.0316 149.245 44.4976 146.423C42.5849 142.894 40.9373 139.27 39.5422 135.583L69.1168 135.028ZM69.8933 135.015L108.653 134.289C110.149 140.552 112.074 147.036 114.542 153.488L78.6299 154.012C75.0444 147.97 72.1153 141.612 69.8996 135.015H69.8933ZM114.826 154.233C117.478 161.045 120.741 167.806 124.756 174.22L95.1059 174.744C90.2578 170.11 85.6117 164.751 81.4706 158.557C80.6373 157.307 79.8419 156.038 79.0655 154.757L114.826 154.233ZM115.622 154.22L147.437 153.753C148.637 161.499 150.051 168.109 151.566 173.741L125.621 174.201C121.575 167.8 118.292 161.038 115.622 154.22ZM148.182 153.74L191.796 153.103C190.609 160.849 189.214 167.465 187.712 173.097L152.317 173.728C150.802 168.115 149.382 161.506 148.182 153.747V153.74ZM192.541 153.09L224.855 152.616C222.286 159.403 219.117 166.165 215.203 172.604L188.469 173.078C189.966 167.434 191.361 160.817 192.541 153.084V153.09ZM225.657 152.604L262.415 152.067C261.172 154.271 259.846 156.436 258.432 158.551C255.08 163.57 251.381 168.046 247.511 172.03L216.087 172.585C219.969 166.139 223.113 159.378 225.657 152.598V152.604ZM225.941 151.853C228.422 145.142 230.322 138.424 231.774 131.985L271.184 131.246C269.145 138.203 266.342 144.927 262.819 151.31L225.941 151.853ZM271.966 131.233L302.292 130.665C299.66 138.235 296.39 144.94 292.754 150.874L263.672 151.297C267.162 144.908 269.94 138.184 271.96 131.233H271.966ZM272.175 130.482C273.961 124.137 275.129 117.603 275.647 110.955L307.304 110.387C306.206 117.452 304.577 123.948 302.551 129.92L272.175 130.489V130.482ZM306.32 87.7163C304.899 81.3399 302.728 75.0961 299.805 69.0164L318.225 68.6503C321.123 74.2375 323.705 80.3487 325.788 87.0407C325.819 87.1355 325.845 87.2238 325.87 87.3185L306.32 87.7163ZM299.439 68.2778C298.776 66.9268 298.082 65.5757 297.343 64.2436C294.288 58.7195 290.595 53.3343 286.302 48.1196L304.255 47.8544C309.097 53.5679 313.768 60.2284 317.834 67.9116L299.439 68.2778ZM285.69 47.3809C281.391 42.2419 276.505 37.2797 271.057 32.5195C269.17 30.8718 267.27 29.2998 265.389 27.8099L281.902 27.5131C282.553 27.9677 283.209 28.4349 283.872 28.9147C289.97 33.3655 296.939 39.3505 303.63 47.1158L285.69 47.3809ZM264.454 27.0775C251.633 17.0836 239.633 10.8462 234.608 8.42819H235.341V8.05571C243.787 10.0507 251.905 12.4308 259.619 15.196C264.233 17.0963 272.067 20.7706 280.855 26.7808L264.454 27.0775ZM233.018 7.68322C232.708 7.53802 232.475 7.43701 232.329 7.37388C232.79 7.47489 233.251 7.58221 233.712 7.68322H233.018ZM231.951 7.68322H218.379C215.367 5.77031 212.962 4.41296 211.46 3.59855C218.517 4.58973 225.411 5.83345 232.109 7.32337L231.957 7.68322H231.951ZM232.853 8.42819C236.483 10.1012 249.317 16.3513 263.268 27.0965L243.143 27.4563C234.514 18.8577 225.878 12.5318 219.546 8.42819H232.86H232.853ZM242.095 27.4753L215.513 27.9551C213.802 25.0888 211.959 22.2984 209.958 19.6089C206.46 14.9119 203.033 11.2439 199.99 8.42819H218.164C224.413 12.4055 233.238 18.7377 242.101 27.4753H242.095ZM209.396 20.1014C211.283 22.6393 213.025 25.2719 214.654 27.9677L188.11 28.4475C186.266 20.0635 184.436 13.2578 183.022 8.42187H198.885C202.048 11.2881 205.684 15.1076 209.396 20.0951V20.1014ZM187.346 28.4601L152.399 29.0914C154.299 20.3792 156.199 13.3462 157.639 8.42819H182.239C183.647 13.2326 185.49 20.0382 187.346 28.4664V28.4601ZM151.635 29.1041L124.283 29.5965C126.391 25.9411 128.493 22.7845 130.488 20.1014C134.2 15.1076 137.83 11.2881 140.999 8.42819H156.862C155.41 13.3841 153.523 20.4234 151.629 29.1104L151.635 29.1041ZM129.926 19.6089C127.54 22.8161 125.375 26.1684 123.399 29.6154L95.1753 30.1268C104.89 20.0067 114.864 12.797 121.726 8.42819H139.9C136.857 11.2502 133.423 14.9119 129.933 19.6089H129.926ZM94.1274 30.1458L72.3489 30.5372C87.9158 17.6645 103.035 10.2717 107.03 8.42819H120.344C113.368 12.9548 103.603 20.1645 94.1274 30.1458ZM105.288 8.42819C99.7141 11.1176 85.5612 18.5041 71.1621 30.5561L54.1496 30.8655C54.7493 30.4235 55.3427 29.9879 55.9298 29.5713C71.1179 18.7819 84.2987 14.9245 84.4312 14.8866L84.3428 14.5899C90.9395 12.2666 97.8266 10.2085 104.954 8.42819H105.282H105.288ZM70.2531 31.32C63.7258 36.8694 57.1923 43.372 51.4162 50.828L33.1223 51.0994C39.719 42.8417 46.7765 36.4401 53.127 31.6294L70.2531 31.32ZM50.8292 51.5856C50.8292 51.5856 50.785 51.6424 50.766 51.6676C45.6402 58.4165 41.6191 65.7714 38.709 73.4862L19.1209 73.8776C22.9842 65.4116 27.6114 58.1135 32.5226 51.8507L50.8292 51.5792V51.5856ZM18.294 73.8966L7.20269 74.1175C10.9271 66.3207 16.1792 58.9089 22.7444 51.9959L31.5631 51.8633C26.696 58.1387 22.1131 65.4431 18.294 73.8903V73.8966ZM6.8555 74.8751L17.9594 74.6542C16.2676 78.4737 14.721 82.5205 13.3827 86.8198C12.6694 89.1115 12.0823 91.4285 11.6278 93.7581L1.23096 93.9727C2.08948 87.4132 4.0022 81.0305 6.8555 74.8814V74.8751ZM14.0961 87.0407C15.4659 82.653 17.0441 78.5305 18.7863 74.6415L38.4312 74.2501C36.1713 80.4245 34.6247 86.8198 33.7977 93.3098L12.3917 93.7454C12.8399 91.4979 13.408 89.263 14.0961 87.0471V87.0407ZM38.7279 135.596C40.1545 139.403 41.8463 143.14 43.8222 146.777C45.2867 149.472 46.8333 152.029 48.4493 154.454L32.0113 154.694C27.7187 149.877 23.6344 144.554 20.1309 138.772C19.5754 137.85 19.0452 136.915 18.5338 135.975L38.7279 135.596ZM48.948 155.192C54.4526 163.311 60.6705 169.927 66.7938 175.243L54.945 175.451C48.2663 170.496 40.1861 163.734 32.6741 155.432L48.948 155.192ZM49.8381 155.18L78.1944 154.763C79.0402 156.177 79.9177 157.585 80.8393 158.961C84.8605 164.971 89.3487 170.205 94.039 174.751L67.9553 175.212C61.6364 169.839 55.3616 163.235 49.8381 155.167V155.18ZM94.8028 175.489C104.133 184.347 114.183 190.534 122.862 194.764L102.441 194.953V195.143C95.5351 192.718 82.1461 187.043 68.8201 175.95L94.8028 175.489ZM95.8697 175.47L125.204 174.946C127.654 178.785 130.368 182.491 133.392 186.001C136.359 189.448 139.269 192.276 141.945 194.581L124.554 194.745C115.799 190.616 105.471 184.454 95.8697 175.47ZM142.817 195.319C147.557 199.278 151.496 201.55 153.649 202.655C150.619 202.485 147.62 202.27 144.654 202.024C142.084 201.412 135.039 199.518 126.132 195.477L142.81 195.319H142.817ZM143.972 195.307L159.829 195.161C162.121 199.227 164.191 201.702 165.643 203.141C162.272 203.059 158.939 202.939 155.644 202.769C155.069 202.535 150.335 200.496 143.972 195.313V195.307ZM143.082 194.568C140.247 192.182 137.123 189.183 133.922 185.471C131.037 182.118 128.436 178.583 126.082 174.927L151.762 174.473C154.223 183.431 156.932 189.858 159.412 194.416L143.075 194.568H143.082ZM152.519 174.46L187.51 173.842C184.991 183.091 182.207 189.637 179.676 194.233L160.252 194.416C157.759 189.921 155.013 183.514 152.519 174.467V174.46ZM188.267 173.823L214.73 173.355C212.085 177.623 209.118 181.746 205.766 185.622C202.856 188.993 200.009 191.778 197.377 194.063L180.509 194.221C183.028 189.562 185.78 182.996 188.267 173.829V173.823ZM206.303 186.152C209.8 182.106 212.887 177.8 215.626 173.337L246.76 172.781C237.07 182.541 226.351 189.303 217.091 193.874L198.525 194.044C200.987 191.86 203.62 189.252 206.309 186.146L206.303 186.152ZM248.559 172.004C252.277 168.122 255.819 163.791 259.051 158.955C260.559 156.701 261.955 154.397 263.268 152.042L292.299 151.619C287.287 159.637 281.625 166.196 276.013 171.518L248.559 172.004ZM293.177 151.606L310.682 151.348C303.87 159.466 296.314 166.146 289.629 171.272L277.111 171.493C282.666 166.146 288.247 159.58 293.177 151.6V151.606ZM293.631 150.855C297.236 144.914 300.468 138.203 303.075 130.646L324.039 130.255C322.833 133.184 321.407 136.032 319.753 138.765C317.19 142.989 314.33 146.935 311.307 150.596L293.631 150.855ZM338.224 101.972C338.224 104.352 338.085 106.719 337.813 109.08L329.417 109.232C329.733 102.174 328.894 95.0144 326.867 88.0383L336.81 87.8362C337.75 92.4512 338.23 97.1672 338.23 101.972H338.224ZM326.64 87.2933C326.589 87.1291 326.545 86.9713 326.495 86.8072C324.437 80.2035 321.899 74.1554 319.052 68.625L329.765 68.4104C332.965 74.408 335.257 80.6518 336.639 87.0913L326.64 87.2933ZM329.373 67.6717L318.661 67.8864C314.64 60.2158 310.019 53.5616 305.215 47.8292L314.166 47.6966C318.276 51.7876 321.893 56.0869 324.999 60.5756C326.602 62.8989 328.06 65.2664 329.38 67.6654L329.373 67.6717ZM313.409 46.9643L304.59 47.0968C297.728 39.0474 290.551 32.8605 284.282 28.2897C283.904 28.0182 283.531 27.7467 283.159 27.4816L286.744 27.4184C287.458 27.8162 288.165 28.2139 288.865 28.618C298.334 34.1231 306.534 40.2596 313.409 46.9643ZM285.444 26.6924L282.123 26.7492C277.566 23.5737 273.235 21.0168 269.448 19.0092C275.041 21.3577 280.381 23.9209 285.444 26.6861V26.6924ZM209.389 3.32077L209.37 3.35233C209.459 3.39653 212.388 4.82964 216.965 7.67691H199.163C195.659 4.53291 192.737 2.55055 190.931 1.45836C197.187 1.88766 203.342 2.51267 209.383 3.31446L209.389 3.32077ZM189.258 1.35735C190.534 2.0455 193.81 3.97104 198.046 7.67691H182.801C181.816 4.3372 181.058 2.04549 180.673 0.934358C183.552 1.03537 186.412 1.17427 189.258 1.35735ZM179.878 0.909109C180.206 1.86241 180.983 4.17937 182.024 7.68322H157.866C158.914 4.16043 159.69 1.83715 160.018 0.89648C163.15 0.789155 166.3 0.732339 169.468 0.732339C172.959 0.732339 176.431 0.795471 179.878 0.909109ZM157.089 7.68322H141.844C146.068 3.98997 149.331 2.06443 150.619 1.36997C153.466 1.18058 156.332 1.02906 159.223 0.928048C158.844 2.03918 158.087 4.3372 157.096 7.68322H157.089ZM140.721 7.68322H122.919C126.713 5.32207 129.371 3.93947 130.223 3.50385C136.334 2.62631 142.57 1.9508 148.921 1.48362C147.115 2.57581 144.212 4.55185 140.727 7.67691L140.721 7.68322ZM121.518 7.68322H108.028C114.505 6.16173 121.177 4.86752 128.014 3.83215C126.498 4.65918 124.264 5.94708 121.518 7.68322ZM68.9716 20.7011C64.9189 22.8287 60.3233 25.5497 55.5258 28.9526C54.6609 29.5713 53.7709 30.2152 52.8745 30.897L49.3394 30.9602C55.4311 27.248 61.9962 23.8199 68.9716 20.7075V20.7011ZM48.0832 31.7241L51.8708 31.6546C45.5645 36.5221 38.6332 42.9238 32.1628 51.1184L23.4829 51.2446C30.3637 44.1485 38.6395 37.5954 48.0832 31.7241ZM1.15521 94.7177L11.5016 94.503C10.2454 101.321 10.0876 108.228 10.9966 114.958L1.93166 115.122C1.12996 110.823 0.725952 106.435 0.725952 101.978C0.725952 99.5347 0.877454 97.1167 1.16152 94.7177H1.15521ZM9.38055 136.139L17.7132 135.981C18.2813 137.054 18.8747 138.109 19.506 139.15C22.9211 144.782 26.8791 149.978 31.0454 154.7L23.0663 154.813C18.9252 150.47 15.3207 145.899 12.2843 141.114C11.2428 139.472 10.2832 137.812 9.38055 136.139ZM23.7733 155.558L31.6956 155.445C39.0877 163.696 47.0542 170.451 53.7456 175.47L50.2421 175.534V175.704C48.6766 174.808 47.1363 173.892 45.6276 172.951C37.2192 167.699 29.9218 161.878 23.7733 155.558ZM54.7241 176.203C58.7136 179.157 62.1919 181.462 64.7422 183.059C60.0267 180.95 55.5131 178.684 51.2206 176.26L54.7304 176.196L54.7241 176.203ZM69.5334 185.117L69.5587 185.073C69.4261 185.003 63.7637 181.891 55.955 176.178L67.6586 175.969C73.3463 180.799 78.914 184.524 83.7242 187.314C89.6518 190.755 95.0427 193.148 99.1459 194.732C88.6039 192.112 78.712 188.899 69.5398 185.117H69.5334ZM106.595 196.462C106.058 196.31 105.187 196.058 104.045 195.679L124.396 195.49C130.936 198.564 136.586 200.502 140.405 201.645C128.569 200.509 117.276 198.773 106.589 196.462H106.595ZM166.76 203.167C165.372 201.917 163.168 199.505 160.669 195.155L179.253 194.985C176.665 199.518 174.373 201.992 172.972 203.236C171.804 203.236 170.636 203.236 169.468 203.223C168.559 203.211 167.657 203.186 166.754 203.167H166.76ZM174.07 203.242C175.554 201.797 177.713 199.246 180.105 194.978L196.499 194.827C189.997 200.288 184.991 202.592 183.987 203.028C180.692 203.16 177.384 203.236 174.07 203.242ZM197.661 194.814L215.519 194.65C203.86 200.199 194.851 202.226 193.797 202.453C191.159 202.655 188.52 202.832 185.862 202.958C188.166 201.778 192.491 199.265 197.661 194.814ZM253.111 190.521C249.576 191.733 245.958 192.857 242.297 193.899C248.648 191.355 257.542 187.055 266.733 180.275C269.82 177.996 273.058 175.338 276.316 172.27L288.625 172.049C280.514 178.166 273.841 181.929 271.594 183.135C265.711 185.843 259.537 188.318 253.104 190.521H253.111ZM289.888 172.03L292.091 171.992C288.209 174.479 284.124 176.847 279.857 179.082C282.748 177.219 286.182 174.864 289.888 172.03ZM293.152 171.31V171.228L290.885 171.266C297.545 166.089 304.981 159.416 311.673 151.348L317.158 151.265C315.94 152.598 314.671 153.917 313.352 155.224C307.494 161 300.708 166.379 293.158 171.31H293.152Z" fill="black"/>
</svg>
